<?xml version="1.0" standalone="no"?><!DOCTYPE svg PUBLIC "-//W3C//DTD SVG 1.1//EN" "http://www.w3.org/Graphics/SVG/1.1/DTD/svg11.dtd"><svg height="890" legacy-metrics="false" node-id="1" sillyvg="true" template-height="890" template-width="777" version="1.1" viewBox="0 0 777 890" width="777" xmlns="http://www.w3.org/2000/svg" xmlns:xlink="http://www.w3.org/1999/xlink"><defs node-id="49"></defs><g node-id="51"><g node-id="52"><path d="M 301.26 57.87 L 290.80 56.91 L 299.17 29.28 L 301.36 29.95 L 293.80 54.88 L 301.47 55.59 Z" fill="#000000" fill-rule="evenodd" group-id="1,2" id="Fill-416" node-id="7" stroke-linecap="butt" stroke-width="1" target-height="28.586998" target-width="10.677002" target-x="290.7968" target-y="29.284489"></path><path d="M 311.54 68.12 L 310.05 68.24 L 309.93 65.95 L 313.27 65.52 L 315.72 64.71 L 317.49 63.61 L 318.72 62.23 L 319.48 60.52 L 319.75 58.82 L 319.69 57.14 L 319.48 55.85 L 319.11 54.56 L 321.23 53.72 L 321.72 55.41 L 321.99 57.01 L 322.03 59.11 L 321.65 61.25 L 320.65 63.46 L 319.23 65.13 L 317.32 66.48 L 314.80 67.49 L 311.54 68.12" fill="#000000" fill-rule="evenodd" group-id="1,2" id="Fill-417" node-id="8" stroke-linecap="butt" stroke-width="1" target-height="14.5130005" target-width="12.095154" target-x="309.93112" target-y="53.723587"></path><path d="M 336.40 63.09 L 335.29 63.56 L 334.21 63.55 L 333.21 63.14 L 332.42 62.40 L 331.95 61.42 L 331.90 60.22 L 332.14 58.21 L 332.25 55.58 L 332.18 52.73 L 331.88 49.16 L 331.47 47.36 L 330.80 45.93 L 329.89 44.81 L 328.71 43.94 L 326.87 43.12 L 324.59 42.55 L 321.78 42.26 L 317.41 42.20 L 312.33 42.39 L 307.10 42.60 L 301.63 42.63 L 296.18 42.26 L 290.94 41.27 L 287.59 40.18 L 284.46 38.63 L 281.52 36.60 L 279.58 34.81 L 277.78 32.63 L 276.13 30.01 L 274.63 26.90 L 273.66 23.96 L 273.19 21.36 L 273.13 19.05 L 273.46 16.96 L 274.44 14.28 L 275.97 11.87 L 278.08 9.69 L 280.55 7.84 L 283.43 6.18 L 286.78 4.72 L 292.06 3.00 L 297.83 1.69 L 303.73 0.80 L 309.52 0.26 L 315.18 0.02 L 320.11 0.04 L 324.68 0.30 L 327.88 0.70 L 332.82 1.72 L 335.19 2.52 L 336.33 3.25 L 336.68 3.81 L 336.57 4.34 L 335.77 5.14 L 333.96 6.09 L 329.33 7.75 L 324.62 9.25 L 322.68 10.01 L 321.78 10.56 L 321.57 10.91 L 321.78 11.22 L 322.76 11.63 L 329.93 13.78 L 335.68 15.98 L 340.21 18.18 L 344.49 20.86 L 347.71 23.46 L 350.05 26.01 L 351.94 28.90 L 353.15 31.72 L 353.76 34.51 L 353.87 37.38 L 353.55 40.23 L 352.78 43.07 L 351.67 45.82 L 350.28 48.49 L 348.59 51.09 L 345.73 54.73 L 342.65 57.97 L 339.39 60.85 L 336.40 63.09" fill="#000000" fill-rule="evenodd" group-id="1,2" id="Fill-418" node-id="9" stroke-linecap="butt" stroke-width="1" target-height="63.54227" target-width="80.73605" target-x="273.13412" target-y="0.016551714"></path><path d="M 355.58 60.79 L 354.66 62.71 L 353.35 64.25 L 351.61 65.46 L 349.97 66.08 L 348.32 66.33 L 346.61 66.22 L 345.49 65.95 L 344.42 65.52 L 343.61 67.67 L 341.35 72.29 L 338.63 76.45 L 335.44 80.19 L 331.81 83.51 L 327.87 86.32 L 323.59 88.65 L 319.06 90.44 L 314.37 91.66 L 309.46 92.32 L 305.76 92.41 L 302.04 92.14 L 298.28 91.50 L 294.47 90.48 L 290.60 89.00 L 287.03 87.21 L 283.73 85.13 L 280.68 82.73 L 277.86 80.03 L 275.36 77.13 L 273.16 74.03 L 271.25 70.69 L 269.67 67.19 L 268.43 63.59 L 267.55 59.87 L 267.01 56.00 L 266.85 52.13 L 267.09 48.23 L 267.73 44.29 L 268.79 40.29 L 270.21 36.54 L 271.94 33.04 L 273.98 29.76 L 276.35 26.69 L 279.00 23.86 L 281.91 21.32 L 285.09 19.05 L 288.56 17.05 L 292.94 15.13 L 297.42 13.76 L 302.03 12.93 L 306.68 12.65 L 310.79 12.87 L 314.88 13.52 L 318.97 14.60 L 322.72 16.02 L 326.22 17.75 L 329.50 19.80 L 332.57 22.16 L 335.40 24.82 L 337.94 27.73 L 340.21 30.91 L 342.21 34.38 L 344.18 38.87 L 345.56 43.45 L 346.37 48.14 L 346.56 50.43 L 347.94 50.31 L 348.84 50.36 L 350.41 50.70 L 352.33 51.61 L 353.87 52.92 L 355.09 54.67 L 355.80 56.68 L 355.96 58.70 L 355.58 60.79 M 357.12 53.63 L 356.02 51.91 L 354.63 50.47 L 352.99 49.34 L 351.12 48.52 L 348.66 48.04 L 347.81 43.03 L 346.34 38.13 L 344.25 33.34 L 342.13 29.67 L 339.73 26.31 L 337.05 23.23 L 334.06 20.42 L 330.81 17.92 L 327.35 15.76 L 323.64 13.93 L 319.68 12.43 L 315.59 11.33 L 311.51 10.65 L 307.44 10.37 L 303.34 10.50 L 299.27 11.03 L 295.29 11.95 L 291.38 13.28 L 287.52 15.01 L 283.85 17.13 L 280.49 19.53 L 277.41 22.22 L 274.60 25.20 L 272.10 28.45 L 269.94 31.92 L 268.11 35.63 L 266.61 39.59 L 265.40 44.20 L 264.73 48.75 L 264.57 53.27 L 264.90 57.78 L 265.69 62.16 L 266.94 66.42 L 268.63 70.53 L 270.72 74.42 L 273.23 78.10 L 276.10 81.49 L 279.33 84.57 L 282.94 87.34 L 280.76 111.52 L 283.04 111.72 L 285.11 88.73 L 289.26 90.91 L 293.77 92.66 L 298.12 93.81 L 302.42 94.49 L 306.69 94.70 L 306.96 94.70 L 305.73 109.71 L 308.01 109.89 L 309.26 94.62 L 313.22 94.18 L 317.05 93.40 L 320.77 92.27 L 324.39 90.79 L 328.97 88.32 L 333.19 85.33 L 337.08 81.79 L 339.68 78.84 L 342.00 75.63 L 344.04 72.16 L 345.79 68.40 L 347.95 68.63 L 350.11 68.40 L 352.10 67.75 L 353.95 66.69 L 355.56 65.28 L 356.82 63.56 L 357.76 61.49 L 358.19 59.49 L 358.23 57.50 L 357.87 55.53 L 357.12 53.63" fill="#000000" fill-rule="evenodd" group-id="1,2" id="Fill-419" node-id="10" stroke-linecap="butt" stroke-width="1" target-height="101.35193" target-width="93.65671" target-x="264.56976" target-y="10.372059"></path><path d="M 345.70 55.53 L 344.39 56.97 L 343.56 58.57 L 343.07 60.25 L 342.87 61.62 L 342.81 63.12 L 345.10 63.00 L 345.14 61.90 L 345.29 60.85 L 345.64 59.56 L 346.23 58.35 L 347.14 57.32 L 348.48 56.63 L 350.27 56.42 L 352.71 56.83 L 353.33 54.63 L 350.87 54.17 L 348.84 54.21 L 347.15 54.67 L 345.70 55.53" fill="#000000" fill-rule="evenodd" group-id="1,2" id="Fill-420" node-id="11" stroke-linecap="butt" stroke-width="1" target-height="8.950661" target-width="10.511993" target-x="342.8142" target-y="54.167927"></path><path d="M 138.17 620.75 L 138.06 620.88 L 137.22 621.53 L 136.18 621.99 L 138.18 624.54 L 139.78 627.28 L 140.99 630.24 L 141.80 633.33 L 142.19 636.47 L 142.15 639.69 L 141.68 642.86 L 140.76 645.94 L 139.37 648.96 L 139.21 649.25 L 138.13 650.95 L 136.89 652.58 L 130.98 660.08 L 132.25 660.18 L 133.44 660.62 L 138.65 654.04 L 139.91 652.39 L 141.03 650.67 L 141.20 650.38 L 142.77 647.09 L 143.83 643.73 L 144.40 640.25 L 144.49 636.73 L 144.12 633.28 L 143.29 629.87 L 142.01 626.61 L 140.31 623.58 L 138.17 620.75" fill="#000000" fill-rule="evenodd" group-id="1,2" id="Fill-421" node-id="12" stroke-linecap="butt" stroke-width="1" target-height="39.874023" target-width="13.50798" target-x="130.98221" target-y="620.7499"></path><path d="M 262.06 574.44 L 262.06 574.44 L 254.73 571.05 L 247.19 567.95 L 239.46 565.20 L 231.29 562.73 L 231.25 562.76 L 230.45 563.30 L 229.52 563.61 L 228.30 563.75 L 227.48 564.29 L 227.19 564.43 L 236.21 566.92 L 244.86 569.75 L 253.24 572.98 L 261.06 576.50 L 261.06 576.50 L 267.60 579.88 L 268.23 578.92 L 269.07 578.09 L 262.06 574.44" fill="#000000" fill-rule="evenodd" group-id="1,2" id="Fill-422" node-id="13" stroke-linecap="butt" stroke-width="1" target-height="17.153015" target-width="41.884003" target-x="227.19061" target-y="562.7314"></path><path d="M 212.87 589.01 L 212.52 586.95 L 211.91 585.32 L 211.08 584.03 L 210.02 583.03 L 208.51 582.20 L 206.99 581.78 L 205.47 581.62 L 204.32 581.65 L 203.14 581.79 L 202.65 579.56 L 204.18 579.36 L 205.63 579.34 L 207.51 579.55 L 209.42 580.10 L 211.36 581.17 L 212.79 582.51 L 213.91 584.18 L 214.70 586.25 L 215.15 588.81 L 212.87 589.01 Z" fill="#000000" fill-rule="evenodd" group-id="1,2" id="Fill-423" node-id="14" stroke-linecap="butt" stroke-width="1" target-height="9.676331" target-width="12.501999" target-x="202.65211" target-y="579.3353"></path><path d="M 298.62 791.01 L 295.44 790.88 L 290.67 790.39 L 285.50 789.51 L 279.24 787.96 L 275.03 786.61 L 270.57 784.84 L 265.82 782.60 L 261.25 780.04 L 256.61 776.91 L 251.88 773.17 L 247.42 768.99 L 243.28 764.40 L 239.45 759.41 L 235.91 753.97 L 232.68 748.07 L 229.75 741.66 L 226.92 734.03 L 224.49 725.74 L 222.50 716.72 L 220.98 706.91 L 219.95 696.26 L 222.24 696.11 L 223.24 706.56 L 224.73 716.18 L 226.67 725.02 L 229.04 733.15 L 231.80 740.61 L 234.65 746.89 L 237.80 752.67 L 241.25 757.98 L 244.98 762.86 L 249.01 767.33 L 253.35 771.41 L 257.44 774.69 L 261.47 777.47 L 265.44 779.81 L 271.56 782.79 L 277.26 784.95 L 282.88 786.58 L 287.75 787.62 L 292.37 788.30 L 295.89 788.62 L 300.64 788.72 L 302.54 781.21 L 303.91 774.03 L 304.76 767.14 L 305.12 760.54 L 305.01 754.19 L 304.46 748.07 L 303.47 742.15 L 301.98 736.23 L 300.04 730.50 L 297.63 724.95 L 294.75 719.56 L 291.38 714.32 L 287.49 709.21 L 283.07 704.23 L 278.89 700.16 L 274.81 696.59 L 270.79 693.49 L 264.68 689.30 L 259.42 686.18 L 254.44 683.58 L 251.01 682.00 L 247.65 680.64 L 248.40 678.48 L 251.85 679.87 L 255.37 681.50 L 260.48 684.16 L 265.88 687.36 L 272.15 691.65 L 276.26 694.83 L 280.45 698.48 L 284.72 702.65 L 289.18 707.68 L 293.64 713.66 L 296.34 717.92 L 298.88 722.61 L 301.24 727.75 L 303.22 733.05 L 304.88 738.81 L 306.18 745.09 L 307.00 751.45 L 307.31 758.34 L 307.09 765.84 L 306.31 773.28 L 304.84 781.37 L 302.61 790.15 L 302.38 790.91 L 301.60 790.97 L 298.62 791.01" fill="#000000" fill-rule="evenodd" group-id="1,2" id="Fill-424" node-id="15" stroke-linecap="butt" stroke-width="1" target-height="112.53302" target-width="87.35855" target-x="219.95322" target-y="678.4811"></path><path d="M 299.23 776.64 L 296.96 776.33 L 297.57 770.20 L 297.77 764.45 L 297.59 759.05 L 297.06 753.97 L 295.82 747.19 L 294.14 740.98 L 292.05 735.27 L 289.50 729.74 L 286.76 724.73 L 283.82 720.19 L 280.59 715.83 L 277.40 712.00 L 274.27 708.65 L 268.93 703.58 L 263.86 699.40 L 258.79 695.70 L 254.50 692.90 L 247.72 689.04 L 245.05 687.75 L 245.96 685.65 L 248.69 686.97 L 255.63 690.90 L 260.02 693.77 L 265.20 697.54 L 270.38 701.82 L 275.85 706.99 L 279.08 710.44 L 282.36 714.38 L 285.69 718.86 L 288.72 723.53 L 291.54 728.69 L 294.17 734.38 L 296.32 740.25 L 298.05 746.65 L 299.33 753.62 L 299.88 758.85 L 300.06 764.41 L 299.85 770.33 L 299.23 776.64" fill="#000000" fill-rule="evenodd" group-id="1,2" id="Fill-425" node-id="16" stroke-linecap="butt" stroke-width="1" target-height="90.98999" target-width="55.010696" target-x="245.05061" target-y="685.6452"></path><path d="M 291.21 782.27 L 288.98 781.74 L 290.07 776.05 L 290.70 770.60 L 290.89 765.39 L 290.72 760.16 L 290.29 755.33 L 289.61 750.86 L 288.22 744.41 L 286.72 739.18 L 285.07 734.46 L 283.80 731.35 L 282.43 728.42 L 284.44 727.33 L 285.86 730.36 L 287.17 733.56 L 288.87 738.42 L 290.42 743.81 L 291.85 750.46 L 292.55 755.07 L 293.00 760.05 L 293.17 765.43 L 292.98 770.80 L 292.33 776.41 L 291.21 782.27" fill="#000000" fill-rule="evenodd" group-id="1,2" id="Fill-426" node-id="17" stroke-linecap="butt" stroke-width="1" target-height="54.93799" target-width="10.747742" target-x="282.4251" target-y="727.3344"></path><path d="M 271.95 771.79 L 267.19 769.81 L 262.80 767.33 L 258.74 764.33 L 254.98 760.92 L 251.54 757.24 L 248.40 753.26 L 244.20 747.00 L 240.70 740.73 L 237.71 734.43 L 235.43 728.86 L 233.54 723.59 L 232.34 719.80 L 231.21 715.67 L 233.44 715.14 L 234.42 718.68 L 235.55 722.25 L 237.38 727.36 L 239.60 732.79 L 242.51 738.99 L 245.91 745.18 L 249.98 751.38 L 253.02 755.32 L 256.35 758.96 L 259.97 762.32 L 263.90 765.28 L 268.12 767.71 L 272.68 769.61 L 271.95 771.79 Z" fill="#000000" fill-rule="evenodd" group-id="1,2" id="Fill-427" node-id="18" stroke-linecap="butt" stroke-width="1" target-height="56.64099" target-width="41.464005" target-x="231.21242" target-y="715.1446"></path><path d="M 252.67 652.02 L 191.40 691.13 L 210.92 688.69 L 245.47 666.78 L 252.67 652.02 Z M 181.61 694.67 L 258.30 645.72 L 247.24 668.36 L 246.97 668.54 L 211.71 690.90 L 211.46 690.93 L 181.61 694.67 Z" fill="#000000" fill-rule="evenodd" group-id="1,2" id="Fill-428" node-id="19" stroke-linecap="butt" stroke-width="1" target-height="48.947998" target-width="76.68501" target-x="181.61101" target-y="645.7174"></path><path d="M 507.41 709.25 L 507.03 709.60 L 505.97 710.25 L 505.40 710.47 L 507.47 713.07 L 509.11 715.86 L 510.36 718.87 L 511.18 722.03 L 511.56 725.23 L 511.50 728.51 L 511.00 731.74 L 510.02 734.87 L 508.55 737.93 L 508.38 738.22 L 507.28 739.90 L 506.01 741.51 L 499.98 748.91 L 501.25 749.03 L 502.43 749.50 L 507.75 743.00 L 509.04 741.37 L 510.18 739.67 L 510.35 739.39 L 512.01 736.06 L 513.13 732.64 L 513.74 729.11 L 513.86 725.52 L 513.50 722.01 L 512.66 718.54 L 511.36 715.21 L 509.62 712.13 L 507.41 709.25" fill="#000000" fill-rule="evenodd" group-id="1,2" id="Fill-429" node-id="20" stroke-linecap="butt" stroke-width="1" target-height="40.244995" target-width="13.884979" target-x="499.9783" target-y="709.2519"></path><path d="M 632.46 665.46 L 632.47 665.46 L 625.12 661.92 L 617.57 658.67 L 609.81 655.76 L 601.60 653.15 L 598.98 655.23 L 607.63 657.82 L 615.91 660.71 L 623.94 663.97 L 631.43 667.50 L 637.91 671.00 L 638.56 670.04 L 639.41 669.22 L 632.46 665.46" fill="#000000" fill-rule="evenodd" group-id="1,2" id="Fill-430" node-id="21" stroke-linecap="butt" stroke-width="1" target-height="17.848022" target-width="40.432007" target-x="598.98" target-y="653.1484"></path><path d="M 583.04 679.21 L 582.72 677.15 L 582.14 675.50 L 581.32 674.20 L 580.28 673.18 L 578.79 672.33 L 577.28 671.89 L 575.76 671.70 L 574.60 671.71 L 573.43 671.83 L 572.98 669.59 L 574.51 669.42 L 575.95 669.42 L 577.84 669.66 L 579.73 670.25 L 581.65 671.35 L 583.07 672.71 L 584.15 674.40 L 584.91 676.48 L 585.32 679.05 L 583.04 679.21 Z" fill="#000000" fill-rule="evenodd" group-id="1,2" id="Fill-431" node-id="22" stroke-linecap="butt" stroke-width="1" target-height="9.796326" target-width="12.346008" target-x="572.9762" target-y="669.417"></path><path d="M 668.04 882.61 L 664.86 882.42 L 660.10 881.85 L 654.95 880.89 L 648.71 879.24 L 644.52 877.81 L 640.09 875.97 L 635.37 873.65 L 630.86 871.02 L 626.27 867.81 L 621.60 863.99 L 617.21 859.73 L 613.15 855.08 L 609.39 850.02 L 605.95 844.53 L 602.82 838.57 L 600.00 832.12 L 597.29 824.45 L 595.00 816.11 L 593.16 807.06 L 591.80 797.23 L 590.95 786.56 L 593.24 786.45 L 594.07 796.92 L 595.40 806.56 L 597.20 815.43 L 599.42 823.60 L 602.06 831.10 L 604.81 837.43 L 607.86 843.26 L 611.22 848.63 L 614.87 853.57 L 618.83 858.11 L 623.09 862.26 L 627.13 865.60 L 631.11 868.45 L 635.05 870.86 L 641.11 873.94 L 646.77 876.19 L 652.37 877.92 L 657.23 879.04 L 661.83 879.80 L 665.35 880.17 L 670.09 880.35 L 672.12 872.87 L 673.60 865.71 L 674.57 858.84 L 675.04 852.24 L 675.04 845.89 L 674.59 839.76 L 673.69 833.84 L 672.31 827.88 L 670.46 822.12 L 668.14 816.54 L 665.35 811.10 L 662.07 805.80 L 658.27 800.63 L 653.93 795.58 L 649.82 791.44 L 645.79 787.80 L 641.83 784.64 L 635.79 780.35 L 630.58 777.14 L 625.64 774.46 L 622.24 772.82 L 618.90 771.41 L 619.69 769.26 L 623.11 770.71 L 626.61 772.39 L 631.67 775.14 L 637.02 778.43 L 643.22 782.82 L 647.28 786.06 L 651.40 789.79 L 655.61 794.03 L 659.98 799.13 L 664.34 805.18 L 666.97 809.49 L 669.43 814.22 L 671.71 819.40 L 673.60 824.73 L 675.16 830.52 L 676.36 836.82 L 677.07 843.19 L 677.27 850.09 L 676.92 857.58 L 676.02 865.01 L 674.41 873.07 L 672.03 881.81 L 671.80 882.57 L 671.01 882.61 L 668.04 882.61" fill="#000000" fill-rule="evenodd" group-id="1,2" id="Fill-432" node-id="23" stroke-linecap="butt" stroke-width="1" target-height="113.356995" target-width="86.31366" target-x="590.9543" target-y="769.2578"></path><path d="M 668.88 868.24 L 666.62 867.90 L 667.33 861.78 L 667.63 856.04 L 667.54 850.63 L 667.09 845.54 L 665.97 838.75 L 664.39 832.51 L 662.39 826.77 L 659.94 821.19 L 657.28 816.13 L 654.41 811.55 L 651.25 807.14 L 648.13 803.26 L 645.06 799.85 L 639.80 794.70 L 634.80 790.43 L 629.80 786.64 L 625.55 783.77 L 618.84 779.81 L 616.19 778.47 L 617.13 776.38 L 619.84 777.75 L 626.71 781.80 L 631.05 784.73 L 636.17 788.60 L 641.28 792.96 L 646.66 798.22 L 649.83 801.72 L 653.05 805.72 L 656.30 810.25 L 659.25 814.97 L 661.99 820.17 L 664.52 825.91 L 666.58 831.82 L 668.21 838.24 L 669.37 845.23 L 669.83 850.47 L 669.92 856.03 L 669.61 861.95 L 668.88 868.24" fill="#000000" fill-rule="evenodd" group-id="1,2" id="Fill-433" node-id="24" stroke-linecap="butt" stroke-width="1" target-height="91.862" target-width="53.728943" target-x="616.1889" target-y="776.3811"></path><path d="M 660.77 873.75 L 658.55 873.18 L 659.74 867.50 L 660.46 862.07 L 660.73 856.86 L 660.65 851.63 L 660.30 846.79 L 659.70 842.31 L 658.41 835.83 L 657.00 830.58 L 655.43 825.84 L 654.21 822.71 L 652.88 819.75 L 654.92 818.70 L 656.29 821.75 L 657.54 824.98 L 659.16 829.86 L 660.62 835.28 L 661.94 841.95 L 662.57 846.57 L 662.93 851.55 L 663.01 856.94 L 662.73 862.31 L 661.99 867.90 L 660.77 873.75" fill="#000000" fill-rule="evenodd" group-id="1,2" id="Fill-434" node-id="25" stroke-linecap="butt" stroke-width="1" target-height="55.04297" target-width="10.132996" target-x="652.88074" target-y="818.703"></path><path d="M 641.69 862.94 L 636.96 860.89 L 632.61 858.33 L 628.60 855.27 L 624.90 851.79 L 621.52 848.05 L 618.45 844.03 L 614.36 837.69 L 610.96 831.37 L 608.07 825.02 L 605.88 819.42 L 604.08 814.12 L 602.95 810.30 L 601.89 806.16 L 604.12 805.67 L 605.05 809.22 L 606.12 812.81 L 607.86 817.95 L 609.99 823.41 L 612.79 829.67 L 616.09 835.91 L 620.06 842.17 L 623.04 846.16 L 626.30 849.86 L 629.87 853.28 L 633.74 856.30 L 637.93 858.80 L 642.45 860.78 L 641.69 862.94 Z" fill="#000000" fill-rule="evenodd" group-id="1,2" id="Fill-435" node-id="26" stroke-linecap="butt" stroke-width="1" target-height="57.271973" target-width="40.56299" target-x="601.8866" target-y="805.6684"></path><path d="M 621.78 742.88 L 559.87 780.96 L 579.43 778.85 L 614.34 757.51 L 621.78 742.88 Z M 550.03 784.33 L 627.51 736.67 L 616.09 759.12 L 615.81 759.29 L 580.18 781.07 L 579.93 781.10 L 550.03 784.33 Z" fill="#000000" fill-rule="evenodd" group-id="1,2" id="Fill-436" node-id="27" stroke-linecap="butt" stroke-width="1" target-height="47.66797" target-width="77.487976" target-x="550.0253" target-y="736.6659"></path><path d="M 622.03 640.62 L 616.72 635.99 L 603.17 624.01 L 583.20 606.11 L 558.65 583.72 L 531.36 558.23 L 517.29 544.81 L 503.16 531.09 L 489.22 517.26 L 475.90 503.70 L 463.02 490.18 L 451.40 477.49 L 440.52 464.97 L 431.51 453.86 L 425.93 446.40 L 421.49 439.90 L 418.07 434.26 L 415.69 429.67 L 414.14 425.86 L 413.25 422.70 L 412.90 420.08 L 412.98 416.24 L 413.41 412.45 L 414.21 408.69 L 415.38 404.96 L 417.34 400.12 L 419.73 395.24 L 422.56 390.31 L 427.20 383.06 L 432.29 375.62 L 437.22 368.41 L 441.91 361.12 L 444.83 356.15 L 447.40 351.13 L 449.63 346.07 L 451.43 340.86 L 452.68 335.55 L 453.38 330.10 L 453.48 326.02 L 453.16 321.81 L 452.38 317.43 L 451.14 312.87 L 449.51 308.56 L 447.30 304.00 L 444.43 299.16 L 440.84 294.01 L 439.01 295.40 L 442.46 300.34 L 445.21 304.99 L 447.33 309.38 L 448.88 313.53 L 450.06 317.93 L 450.79 322.15 L 451.09 326.22 L 450.97 330.17 L 450.27 335.43 L 449.04 340.57 L 447.28 345.62 L 445.10 350.53 L 442.60 355.40 L 439.76 360.23 L 435.19 367.31 L 430.40 374.32 L 425.21 381.92 L 420.47 389.34 L 417.58 394.40 L 415.14 399.42 L 413.13 404.42 L 411.95 408.28 L 411.13 412.17 L 410.69 416.13 L 410.61 420.17 L 410.95 422.78 L 411.78 425.89 L 413.22 429.60 L 415.39 433.99 L 418.57 439.43 L 422.67 445.66 L 427.85 452.77 L 436.21 463.35 L 446.36 475.27 L 457.21 487.35 L 469.32 500.26 L 481.87 513.21 L 495.11 526.50 L 508.58 539.72 L 522.14 552.77 L 548.78 577.84 L 573.43 600.45 L 594.48 619.39 L 610.32 633.43 L 619.34 641.32 L 491.63 718.20 L 484.55 710.30 L 470.87 694.91 L 452.06 673.55 L 429.62 647.75 L 405.04 619.06 L 379.80 588.98 L 367.34 573.83 L 355.41 559.07 L 343.85 544.46 L 333.34 530.84 L 323.43 517.55 L 315.09 505.84 L 307.60 494.60 L 302.15 485.58 L 299.00 479.59 L 297.05 475.02 L 296.01 471.60 L 293.76 459.90 L 292.16 449.00 L 291.14 438.86 L 290.54 428.65 L 290.33 419.43 L 290.48 411.14 L 291.22 399.13 L 292.26 389.71 L 293.58 381.25 L 294.67 375.82 L 295.92 370.74 L 293.73 370.08 L 292.45 375.26 L 291.34 380.81 L 289.99 389.44 L 288.93 399.05 L 288.19 411.30 L 280.77 412.11 L 268.35 413.59 L 252.82 415.64 L 236.09 418.16 L 227.77 419.59 L 220.07 421.07 L 212.71 422.68 L 206.66 424.26 L 201.22 426.06 L 197.76 427.65 L 196.57 428.63 L 195.65 430.13 L 195.04 432.30 L 194.84 435.39 L 195.16 439.41 L 196.16 444.92 L 198.08 452.27 L 200.76 460.73 L 204.55 471.24 L 208.92 482.34 L 214.40 495.37 L 223.32 515.29 L 231.68 533.06 L 238.35 546.73 L 242.17 554.37 L 128.15 624.46 L 122.36 613.18 L 115.68 599.26 L 109.00 584.48 L 101.89 567.85 L 94.96 550.64 L 88.04 532.35 L 81.49 513.75 L 75.38 494.89 L 71.59 482.17 L 67.85 468.54 L 64.43 454.67 L 61.44 440.63 L 59.73 431.20 L 58.35 422.02 L 57.30 413.07 L 56.61 404.08 L 56.39 395.66 L 56.60 387.77 L 57.12 381.79 L 57.95 376.30 L 59.08 371.26 L 60.50 366.62 L 62.53 361.80 L 64.88 357.71 L 67.53 354.28 L 70.48 351.42 L 73.74 349.10 L 77.35 347.27 L 84.55 344.48 L 92.38 341.76 L 100.89 339.13 L 113.85 335.59 L 127.60 332.31 L 141.55 329.36 L 155.57 326.72 L 169.54 324.35 L 182.86 322.30 L 207.53 318.99 L 227.66 316.69 L 241.33 315.36 L 246.59 314.91 L 246.41 312.63 L 241.13 313.08 L 227.42 314.42 L 207.22 316.72 L 182.46 320.05 L 169.08 322.11 L 155.06 324.49 L 140.99 327.15 L 126.98 330.10 L 113.17 333.41 L 100.14 336.97 L 91.59 339.61 L 83.71 342.34 L 76.47 345.15 L 73.09 346.82 L 70.01 348.86 L 67.18 351.31 L 64.61 354.19 L 62.27 357.54 L 60.18 361.40 L 58.34 365.85 L 56.90 370.58 L 55.74 375.71 L 54.88 381.29 L 54.35 387.34 L 54.12 395.35 L 54.33 403.88 L 55.01 412.97 L 56.06 422.02 L 57.44 431.31 L 59.15 440.83 L 62.17 455.01 L 65.60 468.99 L 69.37 482.74 L 73.19 495.57 L 78.11 510.89 L 83.35 526.09 L 88.85 541.12 L 94.45 555.59 L 100.20 569.75 L 105.82 582.93 L 111.49 595.65 L 116.79 606.98 L 122.06 617.70 L 126.70 626.62 L 127.28 627.68 L 244.27 555.77 L 245.17 555.21 L 244.69 554.27 L 242.95 550.82 L 238.45 541.75 L 232.00 528.42 L 224.42 512.20 L 216.50 494.46 L 209.99 478.87 L 205.43 467.06 L 201.72 456.31 L 199.46 448.66 L 197.89 441.86 L 197.27 437.48 L 197.19 433.75 L 197.52 431.73 L 198.23 430.24 L 198.91 429.64 L 202.21 428.12 L 207.48 426.40 L 213.36 424.88 L 220.55 423.31 L 236.25 420.47 L 252.72 417.98 L 268.10 415.94 L 280.53 414.45 L 288.13 413.61 L 288.06 421.76 L 288.34 430.73 L 288.99 440.60 L 290.03 450.40 L 291.61 460.88 L 293.77 472.09 L 294.85 475.66 L 296.88 480.41 L 300.12 486.61 L 305.74 495.93 L 313.45 507.50 L 322.02 519.55 L 332.18 533.19 L 342.95 547.14 L 354.78 562.07 L 366.98 577.14 L 379.69 592.57 L 405.35 623.08 L 430.21 652.04 L 452.71 677.84 L 471.31 698.90 L 484.44 713.62 L 490.56 720.43 L 491.19 721.13 L 623.22 641.65 L 622.03 640.62 Z" fill="#000000" fill-rule="evenodd" group-id="1,2" id="Fill-437" node-id="28" stroke-linecap="butt" stroke-width="1" target-height="427.12" target-width="569.09753" target-x="54.12284" target-y="294.0121"></path><path d="M 126.85 225.45 L 120.73 223.04 L 114.89 220.34 L 109.32 217.37 L 103.99 214.12 L 97.14 209.36 L 90.75 204.35 L 84.82 199.08 L 79.16 193.50 L 73.99 187.93 L 69.28 182.37 L 62.74 173.86 L 57.35 166.03 L 51.56 156.67 L 46.46 147.41 L 41.89 138.11 L 38.06 129.34 L 34.76 120.70 L 32.24 113.02 L 30.25 105.64 L 29.05 99.67 L 28.24 93.84 L 27.88 89.83 L 27.78 86.35 L 27.91 84.24 L 28.22 82.52 L 28.53 81.71 L 29.10 81.02 L 29.85 81.03 L 30.99 81.66 L 32.08 82.60 L 33.01 83.64 L 34.04 84.97 L 36.32 91.92 L 39.04 98.81 L 42.08 105.52 L 45.17 111.70 L 48.34 117.56 L 51.14 122.43 L 55.70 129.81 L 57.57 132.63 L 59.30 131.31 L 57.40 128.44 L 52.79 120.97 L 49.96 116.04 L 46.78 110.13 L 43.69 103.90 L 40.68 97.16 L 38.00 90.25 L 35.81 83.32 L 34.07 76.01 L 33.32 71.08 L 33.31 67.66 L 33.55 65.33 L 34.02 63.32 L 34.56 62.08 L 35.24 61.13 L 35.84 60.64 L 36.68 60.28 L 37.62 60.16 L 37.73 60.15 L 37.74 60.16 L 38.90 60.30 L 39.94 60.57 L 41.55 61.26 L 43.08 62.12 L 45.50 63.85 L 45.53 66.32 L 45.89 69.28 L 46.80 73.41 L 48.38 78.52 L 50.81 84.81 L 54.24 92.46 L 59.06 102.07 L 65.50 113.86 L 73.82 128.13 L 75.63 126.93 L 67.44 112.89 L 63.36 105.55 L 59.51 98.24 L 55.92 90.94 L 52.89 84.16 L 50.34 77.50 L 48.65 71.83 L 47.91 68.08 L 47.67 64.99 L 47.83 62.46 L 48.72 60.20 L 49.69 58.72 L 50.72 57.83 L 51.83 57.37 L 52.18 57.34 L 53.52 57.46 L 54.92 57.89 L 57.55 59.35 L 59.69 61.02 L 61.03 62.27 L 61.17 62.42 L 61.18 62.42 L 63.30 64.70 L 64.87 66.62 L 66.09 71.04 L 68.03 76.49 L 70.33 82.11 L 73.03 88.16 L 78.83 100.10 L 84.38 110.76 L 88.65 118.60 L 90.61 122.08 L 92.45 120.93 L 90.88 118.13 L 87.01 111.04 L 81.79 101.10 L 76.17 89.72 L 73.48 83.88 L 71.10 78.35 L 69.02 72.95 L 67.55 68.41 L 66.91 65.88 L 66.42 63.14 L 66.35 61.48 L 66.47 60.10 L 66.85 58.93 L 67.42 58.26 L 67.89 58.07 L 68.92 58.07 L 70.15 58.43 L 72.30 59.56 L 74.68 61.26 L 78.25 64.36 L 80.97 67.30 L 84.02 71.37 L 86.96 75.90 L 90.19 81.32 L 96.89 93.30 L 105.47 108.63 L 110.18 116.57 L 115.31 124.65 L 120.78 132.57 L 126.69 140.28 L 130.89 145.22 L 135.29 149.93 L 139.91 154.42 L 143.86 157.70 L 147.87 160.39 L 151.97 162.52 L 156.16 164.14 L 160.48 165.26 L 164.88 165.85 L 169.39 165.92 L 174.02 165.43 L 178.82 164.37 L 183.82 162.69 L 184.30 161.96 L 184.43 161.51 L 184.34 160.68 L 184.28 160.07 L 179.03 161.83 L 173.92 162.91 L 168.91 163.34 L 165.12 163.24 L 161.44 162.80 L 157.83 161.99 L 154.29 160.83 L 150.89 159.34 L 147.60 157.50 L 144.40 155.29 L 141.30 152.70 L 136.75 148.28 L 132.41 143.63 L 128.27 138.74 L 122.42 131.11 L 117.01 123.27 L 111.93 115.27 L 107.25 107.39 L 98.74 92.18 L 91.95 80.02 L 88.66 74.52 L 85.64 69.90 L 82.51 65.73 L 79.67 62.66 L 77.02 60.31 L 74.79 58.58 L 74.79 58.57 L 73.60 57.65 L 71.32 56.26 L 69.96 55.68 L 68.57 55.34 L 67.21 55.35 L 65.98 55.82 L 65.12 56.65 L 64.49 57.91 L 64.14 59.75 L 64.18 62.39 L 62.68 60.82 L 61.96 60.10 L 60.29 58.63 L 58.16 57.05 L 55.97 55.83 L 54.43 55.27 L 52.96 55.04 L 51.52 55.11 L 50.01 55.52 L 48.68 56.33 L 47.47 57.60 L 46.51 59.27 L 45.84 61.31 L 42.80 59.38 L 42.80 59.38 L 41.97 58.96 L 40.07 58.25 L 39.82 58.19 L 39.45 58.09 L 38.92 57.99 L 38.78 57.97 L 38.22 57.90 L 37.94 57.89 L 37.58 57.88 L 36.29 57.97 L 35.02 58.39 L 33.76 59.16 L 32.66 60.38 L 31.79 62.06 L 31.20 64.33 L 30.96 67.36 L 31.16 71.33 L 31.49 75.11 L 32.14 79.68 L 32.16 79.77 L 31.22 79.18 L 30.23 78.79 L 29.21 78.67 L 28.20 78.92 L 27.54 79.34 L 26.83 80.18 L 26.30 81.34 L 25.84 83.39 L 25.64 85.83 L 25.71 89.63 L 26.08 93.94 L 26.92 100.01 L 27.01 100.56 L 27.98 105.44 L 29.50 111.36 L 31.68 118.46 L 34.15 125.43 L 37.25 133.10 L 41.06 141.53 L 45.20 149.76 L 50.03 158.35 L 55.59 167.31 L 61.06 175.24 L 67.69 183.88 L 72.46 189.52 L 77.71 195.17 L 83.46 200.83 L 89.49 206.18 L 95.98 211.27 L 102.95 216.10 L 108.36 219.40 L 114.03 222.42 L 119.97 225.16 L 126.20 227.62 L 134.42 230.29 L 142.42 232.38 L 150.21 233.91 L 158.08 234.94 L 165.71 235.41 L 173.13 235.33 L 178.46 234.95 L 183.59 234.28 L 188.51 233.36 L 188.63 232.07 L 189.24 230.76 L 182.20 232.12 L 174.90 232.91 L 167.32 233.13 L 159.43 232.76 L 151.68 231.84 L 143.68 230.33 L 135.41 228.21 L 126.85 225.45" fill="#000000" fill-rule="evenodd" group-id="1,2" id="Fill-438" node-id="29" stroke-linecap="butt" stroke-width="1" target-height="180.36691" target-width="163.60178" target-x="25.63904" target-y="55.03923"></path><path d="M 389.83 221.84 L 388.42 215.84 L 386.42 210.03 L 383.83 204.40 L 383.66 202.57 L 382.67 197.61 L 381.70 194.36 L 380.15 190.32 L 378.16 186.17 L 375.37 181.46 L 363.38 185.46 L 364.88 191.46 L 365.50 194.48 L 365.89 197.49 L 365.88 198.34 L 365.70 199.14 L 366.42 202.46 L 366.71 205.97 L 367.10 209.16 L 367.64 212.34 L 368.26 213.28 L 368.68 214.34 L 368.88 215.78 L 368.76 216.98 L 369.47 221.64 L 370.17 226.49 L 370.92 231.32 L 371.53 232.59 L 371.79 234.22 L 372.13 238.26 L 372.80 242.26 L 374.18 250.28 L 374.17 251.15 L 374.28 251.52 L 375.12 255.36 L 375.76 259.23 L 378.22 258.33 L 381.08 254.59 L 382.70 251.87 L 384.09 248.92 L 385.43 245.94 L 386.92 243.11 L 387.77 239.93 L 388.51 236.09 L 388.95 232.38 L 389.14 228.64 L 389.12 224.74 L 389.29 223.11 L 389.83 221.84" fill="#ffbe21" fill-rule="evenodd" group-id="1,2" id="Fill-439" node-id="30" stroke-linecap="butt" stroke-width="1" target-height="77.76799" target-width="26.447021" target-x="363.3783" target-y="181.46419"></path><path d="M 463.71 210.17 L 460.04 200.93 L 456.14 192.38 L 452.00 184.50 L 447.64 177.23 L 442.81 170.11 L 437.84 163.54 L 432.73 157.51 L 427.49 151.99 L 421.90 146.69 L 416.26 141.83 L 410.58 137.42 L 404.86 133.42 L 396.91 128.48 L 389.07 124.19 L 381.33 120.51 L 373.40 117.23 L 365.79 114.48 L 358.50 112.23 L 351.10 110.28 L 344.26 108.74 L 337.97 107.57 L 328.76 106.24 L 321.33 105.51 L 314.58 105.11 L 310.18 105.01 L 306.11 105.08 L 304.48 108.77 L 302.92 111.42 L 301.43 113.24 L 299.65 114.76 L 297.98 115.68 L 296.38 116.10 L 294.69 116.16 L 293.07 115.91 L 291.49 115.36 L 289.27 114.17 L 287.33 112.73 L 285.61 111.16 L 284.43 109.90 L 283.34 108.58 L 270.94 110.87 L 259.35 113.58 L 248.54 116.69 L 237.86 120.29 L 228.06 124.04 L 219.10 127.92 L 210.26 132.17 L 202.40 136.27 L 195.44 140.23 L 185.57 146.37 L 178.00 151.57 L 171.36 156.52 L 167.22 159.87 L 163.53 163.09 L 185.30 235.44 L 220.75 224.56 L 235.68 313.59 L 266.30 319.29 L 266.62 318.09 L 267.31 316.83 L 269.09 314.70 L 271.56 312.52 L 275.98 309.49 L 278.81 307.93 L 283.18 305.84 L 293.58 301.38 L 305.17 296.75 L 315.93 292.63 L 323.87 289.67 L 326.96 288.53 L 329.52 287.33 L 336.23 284.07 L 345.59 279.28 L 356.12 273.48 L 361.40 270.34 L 366.33 267.20 L 370.98 263.95 L 374.76 260.96 L 377.07 258.83 L 378.74 256.95 L 379.90 255.29 L 380.49 253.78 L 380.96 251.35 L 381.21 247.66 L 381.13 241.88 L 380.58 234.27 L 379.67 226.18 L 378.37 216.92 L 388.30 218.72 L 463.71 210.17 Z" fill="#ffbe21" fill-rule="evenodd" group-id="1,2" id="Fill-440" node-id="31" stroke-linecap="butt" stroke-width="1" target-height="214.27672" target-width="300.182" target-x="163.5252" target-y="105.013565"></path><path d="M 457.90 210.83 L 455.56 211.10 L 456.81 218.34 L 457.49 225.73 L 457.59 233.29 L 457.10 241.06 L 455.99 249.05 L 454.37 256.78 L 452.17 264.65 L 449.37 272.68 L 445.93 280.87 L 441.84 289.26 L 438.43 295.25 L 434.80 300.90 L 430.95 306.22 L 426.87 311.21 L 421.03 317.57 L 415.02 323.37 L 408.85 328.65 L 402.40 333.61 L 396.05 338.04 L 389.79 341.98 L 380.30 347.34 L 371.70 351.60 L 361.50 356.02 L 351.53 359.73 L 341.59 362.88 L 332.31 365.34 L 323.24 367.28 L 315.26 368.57 L 307.65 369.35 L 301.56 369.55 L 295.67 369.37 L 291.66 369.04 L 288.21 368.53 L 286.16 368.02 L 284.51 367.39 L 283.76 366.93 L 283.27 366.43 L 283.17 366.20 L 283.31 365.41 L 284.12 364.34 L 285.23 363.36 L 286.41 362.57 L 287.89 361.72 L 295.12 360.56 L 302.37 358.92 L 309.49 356.93 L 316.10 354.78 L 322.40 352.50 L 327.67 350.42 L 335.71 346.94 L 338.80 345.48 L 337.78 343.43 L 334.64 344.92 L 326.50 348.43 L 321.17 350.52 L 314.81 352.81 L 308.16 354.95 L 301.02 356.91 L 293.75 358.50 L 286.55 359.58 L 279.06 360.11 L 274.08 360.02 L 270.70 359.43 L 268.44 358.77 L 266.54 357.92 L 265.41 357.14 L 264.59 356.26 L 264.20 355.54 L 263.98 354.59 L 264.02 353.58 L 264.03 353.48 L 264.04 353.46 L 264.37 352.27 L 264.81 351.24 L 265.76 349.66 L 266.86 348.21 L 268.97 345.98 L 271.41 346.39 L 274.39 346.54 L 278.60 346.31 L 283.91 345.55 L 290.51 344.13 L 298.63 341.88 L 308.91 338.52 L 321.59 333.85 L 337.06 327.65 L 336.18 325.54 L 320.97 331.65 L 313.05 334.62 L 305.20 337.37 L 297.41 339.85 L 290.22 341.82 L 283.23 343.32 L 277.36 344.09 L 273.54 344.21 L 270.46 343.91 L 267.99 343.29 L 265.93 341.97 L 264.63 340.70 L 263.90 339.46 L 263.63 338.20 L 263.66 337.83 L 264.00 336.44 L 264.66 335.05 L 265.54 333.75 L 266.54 332.55 L 268.54 330.60 L 269.99 329.43 L 270.16 329.30 L 270.16 329.30 L 272.76 327.47 L 274.92 326.17 L 279.47 325.67 L 285.18 324.60 L 291.10 323.18 L 297.52 321.42 L 310.25 317.45 L 321.68 313.51 L 330.13 310.42 L 333.88 308.99 L 333.05 306.85 L 330.03 308.01 L 322.40 310.81 L 311.72 314.53 L 299.58 318.41 L 293.37 320.20 L 287.52 321.71 L 281.85 322.94 L 277.13 323.68 L 274.52 323.90 L 271.74 323.93 L 270.09 323.71 L 268.75 323.34 L 267.66 322.74 L 267.10 322.02 L 266.99 321.50 L 267.16 320.42 L 267.72 319.18 L 269.19 317.13 L 271.26 314.94 L 274.91 311.74 L 278.27 309.41 L 282.78 306.94 L 287.74 304.65 L 293.61 302.23 L 306.55 297.32 L 323.08 291.04 L 331.70 287.50 L 340.52 283.55 L 349.23 279.21 L 357.82 274.38 L 363.39 270.86 L 368.77 267.08 L 373.96 263.02 L 377.83 259.49 L 381.14 255.77 L 383.93 251.85 L 386.24 247.73 L 388.07 243.38 L 389.39 238.87 L 390.20 234.16 L 390.49 229.22 L 390.24 224.00 L 389.42 218.46 L 384.44 197.25 L 382.21 197.77 L 387.15 218.82 L 387.86 224.44 L 387.95 229.83 L 387.45 235.00 L 386.36 240.08 L 384.71 244.87 L 382.48 249.42 L 379.72 253.67 L 376.41 257.61 L 372.50 261.26 L 367.38 265.25 L 362.07 268.99 L 356.57 272.46 L 348.07 277.24 L 339.44 281.53 L 330.70 285.43 L 322.16 288.94 L 305.75 295.18 L 292.63 300.15 L 286.67 302.62 L 281.60 304.98 L 276.97 307.52 L 273.47 309.96 L 270.72 312.32 L 268.63 314.35 L 268.63 314.35 L 267.53 315.43 L 265.78 317.58 L 264.98 318.90 L 264.41 320.30 L 264.19 321.72 L 264.46 323.10 L 265.14 324.17 L 266.28 325.05 L 268.03 325.73 L 270.62 326.15 L 268.83 327.44 L 268.00 328.07 L 266.28 329.56 L 264.37 331.51 L 262.80 333.60 L 262.00 335.10 L 261.52 336.61 L 261.35 338.13 L 261.50 339.79 L 262.09 341.33 L 263.13 342.81 L 264.62 344.12 L 266.52 345.18 L 264.12 348.02 L 264.11 348.02 L 263.55 348.82 L 262.54 350.69 L 262.44 350.93 L 262.29 351.31 L 262.10 351.85 L 262.05 351.99 L 261.89 352.56 L 261.83 352.85 L 261.76 353.23 L 261.70 355.33 L 261.93 356.39 L 262.39 357.46 L 263.43 358.85 L 264.96 360.05 L 267.11 361.07 L 270.04 361.85 L 273.96 362.33 L 277.74 362.66 L 282.35 362.78 L 282.45 362.78 L 281.72 363.66 L 281.16 364.63 L 280.88 365.67 L 280.96 366.78 L 281.26 367.55 L 281.97 368.43 L 283.03 369.20 L 284.97 370.04 L 287.35 370.68 L 291.10 371.28 L 295.41 371.65 L 301.54 371.84 L 302.10 371.84 L 307.90 371.63 L 315.28 370.89 L 323.06 369.68 L 332.09 367.79 L 341.37 365.38 L 351.55 362.18 L 358.34 359.73 L 365.38 356.90 L 372.67 353.68 L 381.39 349.35 L 391.02 343.92 L 397.36 339.91 L 403.81 335.41 L 410.35 330.38 L 416.62 325.01 L 422.72 319.11 L 428.65 312.65 L 432.79 307.57 L 436.71 302.17 L 440.40 296.42 L 443.86 290.32 L 447.86 282.18 L 451.25 274.16 L 454.06 266.26 L 456.38 258.20 L 458.11 250.29 L 459.27 242.49 L 459.77 236.94 L 459.97 231.55 L 459.90 226.32 L 459.53 221.10 L 458.86 215.94 L 457.90 210.83" fill="#000000" fill-rule="evenodd" group-id="1,2" id="Fill-441" node-id="32" stroke-linecap="butt" stroke-width="1" target-height="174.594" target-width="198.62933" target-x="261.34552" target-y="197.24649"></path><path d="M 248.91 868.29 L 151.12 750.80 L 152.29 749.83 L 250.08 867.31 Z" fill="#ffbe21" fill-rule="evenodd" group-id="1,2" id="Fill-442" node-id="33" stroke-linecap="butt" stroke-width="1" target-height="118.45996" target-width="98.966995" target-x="151.11531" target-y="749.8266"></path><path d="M 302.09 889.09 L 204.30 771.61 L 205.47 770.63 L 303.26 888.12 Z" fill="#ffbe21" fill-rule="evenodd" group-id="1,2" id="Fill-443" node-id="34" stroke-linecap="butt" stroke-width="1" target-height="118.45996" target-width="98.96602" target-x="204.2989" target-y="770.6322"></path><path d="M 370.36 648.24 L 272.57 530.76 L 273.74 529.78 L 371.54 647.26 Z" fill="#ffbe21" fill-rule="evenodd" group-id="1,2" id="Fill-444" node-id="35" stroke-linecap="butt" stroke-width="1" target-height="118.45996" target-width="98.96701" target-x="272.5704" target-y="529.7816"></path><path d="M 589.65 551.34 L 491.86 433.86 L 493.03 432.88 L 590.83 550.37 Z" fill="#ffbe21" fill-rule="evenodd" group-id="1,2" id="Fill-445" node-id="36" stroke-linecap="butt" stroke-width="1" target-height="118.46002" target-width="98.96799" target-x="491.8594" target-y="432.88318"></path><path d="M 587.20 381.82 L 489.40 264.33 L 490.58 263.36 L 588.37 380.84 Z" fill="#ffbe21" fill-rule="evenodd" group-id="1,2" id="Fill-446" node-id="37" stroke-linecap="butt" stroke-width="1" target-height="118.46002" target-width="98.96802" target-x="489.40442" target-y="263.35828"></path><path d="M 607.55 440.32 L 509.76 322.84 L 510.93 321.86 L 608.72 439.34 Z" fill="#ffbe21" fill-rule="evenodd" group-id="1,2" id="Fill-447" node-id="38" stroke-linecap="butt" stroke-width="1" target-height="118.45999" target-width="98.96597" target-x="509.756" target-y="321.85928"></path><path d="M 512.02 212.29 L 414.22 94.81 L 415.40 93.83 L 513.19 211.32 Z" fill="#ffbe21" fill-rule="evenodd" group-id="1,2" id="Fill-448" node-id="39" stroke-linecap="butt" stroke-width="1" target-height="118.46001" target-width="98.96698" target-x="414.22272" target-y="93.832886"></path><path d="M 775.07 764.18 L 677.28 646.69 L 678.45 645.72 L 776.25 763.20 Z" fill="#ffbe21" fill-rule="evenodd" group-id="1,2" id="Fill-449" node-id="40" stroke-linecap="butt" stroke-width="1" target-height="118.46002" target-width="98.96698" target-x="677.2794" target-y="645.71716"></path><path d="M 447.39 878.69 L 349.59 761.21 L 350.76 760.23 L 448.56 877.71 Z" fill="#ffbe21" fill-rule="evenodd" group-id="1,2" id="Fill-450" node-id="41" stroke-linecap="butt" stroke-width="1" target-height="118.46002" target-width="98.96698" target-x="349.59192" target-y="760.2294"></path><path d="M 13.20 103.31 L 10.87 99.58 L 9.38 96.25 L 8.61 93.25 L 8.44 90.51 L 8.83 87.95 L 9.83 85.44 L 11.10 83.56 L 12.59 82.02 L 13.84 81.05 L 15.28 80.20 L 16.23 82.28 L 15.12 82.95 L 14.11 83.74 L 12.88 85.01 L 11.84 86.54 L 11.04 88.56 L 10.73 90.71 L 10.90 93.05 L 11.60 95.67 L 12.95 98.62 L 15.06 101.98 L 13.20 103.31 Z" fill="#ffbe21" fill-rule="evenodd" group-id="1,2" id="Fill-451" node-id="42" stroke-linecap="butt" stroke-width="1" target-height="23.108002" target-width="7.7906857" target-x="8.4436245" target-y="80.20199"></path><path d="M 4.05 103.19 L 2.17 99.28 L 0.92 95.67 L 0.22 92.33 L 0.00 89.21 L 0.24 86.26 L 0.92 83.46 L 1.96 80.99 L 3.15 78.93 L 4.46 77.23 L 6.66 75.04 L 8.46 73.66 L 10.51 72.44 L 11.48 74.52 L 9.76 75.55 L 8.18 76.77 L 6.22 78.72 L 5.05 80.22 L 4.00 82.04 L 3.09 84.20 L 2.42 87.21 L 2.33 90.43 L 2.84 93.94 L 4.05 97.80 L 6.06 102.10 L 4.05 103.19 Z" fill="#ffbe21" fill-rule="evenodd" group-id="1,2" id="Fill-452" node-id="43" stroke-linecap="butt" stroke-width="1" target-height="30.746002" target-width="11.4746475" target-x="0.0013627708" target-y="72.444885"></path><path d="M 83.98 52.52 L 83.71 51.25 L 83.30 50.03 L 82.51 48.46 L 81.40 46.97 L 79.75 45.55 L 77.83 44.55 L 75.56 43.94 L 72.86 43.75 L 69.63 44.05 L 65.76 44.95 L 65.12 42.75 L 69.40 41.77 L 73.03 41.46 L 76.12 41.72 L 78.77 42.46 L 81.06 43.67 L 83.10 45.43 L 84.46 47.25 L 85.43 49.16 L 85.93 50.66 L 86.26 52.30 L 83.98 52.52 L 85.12 52.41 L 83.98 52.52 Z" fill="#ffbe21" fill-rule="evenodd" group-id="1,2" id="Fill-453" node-id="44" stroke-linecap="butt" stroke-width="1" target-height="11.0566635" target-width="21.146004" target-x="65.11551" target-y="41.462826"></path><path d="M 92.88 50.57 L 92.46 48.61 L 91.83 46.72 L 90.63 44.23 L 89.60 42.63 L 88.23 41.04 L 86.48 39.47 L 83.86 37.85 L 80.85 36.71 L 77.37 36.04 L 73.32 35.91 L 68.60 36.40 L 68.23 34.15 L 72.54 33.66 L 76.36 33.66 L 79.74 34.09 L 82.76 34.91 L 85.47 36.10 L 87.90 37.67 L 89.89 39.46 L 91.45 41.26 L 92.62 43.06 L 93.97 45.85 L 94.68 48.00 L 95.15 50.34 L 92.88 50.57 Z" fill="#ffbe21" fill-rule="evenodd" group-id="1,2" id="Fill-454" node-id="45" stroke-linecap="butt" stroke-width="1" target-height="16.911465" target-width="26.923004" target-x="68.23111" target-y="33.659725"></path><path d="M 303.55 610.60 L 112.79 733.13 L 111.51 730.27 L 110.43 727.11 L 109.24 722.17 L 108.67 718.64 L 108.35 714.47 L 108.32 709.57 L 108.68 704.71 L 109.58 699.28 L 111.10 693.20 L 112.55 688.83 L 114.48 684.16 L 116.92 679.16 L 119.95 673.81 L 123.17 668.85 L 127.07 663.59 L 131.72 658.03 L 137.19 652.13 L 262.06 574.44 L 267.70 576.33 L 273.27 578.71 L 278.79 581.60 L 282.74 584.07 L 286.48 586.86 L 290.04 589.97 L 293.41 593.42 L 296.43 597.12 L 299.12 601.19 L 301.50 605.67 L 303.55 610.60" fill="#ffbe21" fill-rule="evenodd" group-id="1,2" id="Fill-455" node-id="46" stroke-linecap="butt" stroke-width="1" target-height="158.69604" target-width="195.22864" target-x="108.31738" target-y="574.43896"></path><path d="M 673.34 702.31 L 480.58 821.65 L 479.34 818.77 L 478.32 815.59 L 477.20 810.63 L 476.70 807.09 L 476.45 802.92 L 476.49 798.01 L 476.93 793.17 L 477.93 787.75 L 479.55 781.70 L 481.07 777.35 L 483.07 772.71 L 485.60 767.76 L 488.72 762.46 L 492.02 757.55 L 496.01 752.36 L 500.75 746.87 L 506.32 741.07 L 632.46 665.46 L 638.07 667.44 L 643.60 669.92 L 649.07 672.89 L 652.97 675.43 L 656.67 678.28 L 660.18 681.45 L 663.49 684.96 L 666.45 688.70 L 669.07 692.82 L 671.37 697.35 L 673.34 702.31" fill="#ffbe21" fill-rule="evenodd" group-id="1,2" id="Fill-456" node-id="47" stroke-linecap="butt" stroke-width="1" target-height="156.19403" target-width="196.89294" target-x="476.44794" target-y="665.4601"></path></g></g></svg>