<?xml version="1.0" standalone="no"?><!DOCTYPE svg PUBLIC "-//W3C//DTD SVG 1.1//EN" "http://www.w3.org/Graphics/SVG/1.1/DTD/svg11.dtd"><svg height="249" legacy-metrics="false" node-id="1" sillyvg="true" template-height="249" template-width="299" version="1.1" viewBox="0 0 299 249" width="299" xmlns="http://www.w3.org/2000/svg" xmlns:xlink="http://www.w3.org/1999/xlink"><defs node-id="62"></defs><path d="M 148.99 134.97 L 148.81 204.36 L 88.22 169.37 L 88.39 99.98 L 148.99 134.97 Z" fill="#ffce00" fill-rule="nonzero" node-id="65" stroke="none" target-height="104.38" target-width="60.770004" target-x="88.22" target-y="99.98"></path><path d="M 148.99 134.97 L 209.64 99.72 L 209.47 169.10 L 148.81 204.36 L 148.99 134.97 Z" fill="#ffce00" fill-rule="nonzero" node-id="67" stroke="none" target-height="104.64" target-width="60.83" target-x="148.81" target-y="99.72"></path><path d="M 209.65 99.72 L 148.99 134.97 L 88.39 99.98 L 148.99 64.77 L 149.05 64.73 L 209.65 99.72 Z" fill="#ffce00" fill-rule="nonzero" node-id="69" stroke="none" target-height="70.24" target-width="121.259995" target-x="88.39" target-y="64.73"></path><path d="M 148.99 134.97 L 148.85 135.16 L 132.47 158.27 L 72.72 123.97 L 72.40 123.78 L 88.39 99.98 L 148.99 134.97 Z" fill="#ffce00" fill-rule="nonzero" node-id="71" stroke="none" target-height="58.29" target-width="76.590004" target-x="72.4" target-y="99.98"></path><path d="M 149.41 134.97 L 149.54 135.16 L 165.93 158.27 L 225.67 123.97 L 225.99 123.78 L 210.00 99.98 L 149.41 134.97 Z" fill="#ffce00" fill-rule="nonzero" node-id="73" stroke="none" target-height="58.29" target-width="76.58" target-x="149.41" target-y="99.98"></path><g node-id="178"><path d="M 209.65 99.72 L 148.99 134.97 L 148.99 64.77 L 149.05 64.73 L 209.65 99.72 Z" fill="#e38921" fill-opacity="0.5" fill-rule="nonzero" group-id="1" node-id="77" stroke-linecap="butt" stroke-opacity="0.5" stroke-width="1" target-height="70.24" target-width="60.65999" target-x="148.99" target-y="64.73"></path><path d="M 148.85 135.16 L 132.47 158.27 L 72.72 124.00 C 75.51 122.00 80.62 120.69 89.13 125.47 C 113.89 139.40 124.37 148.47 132.68 142.24 C 137.72 138.45 142.72 132.13 148.85 135.16 Z" fill="#e38921" fill-opacity="0.5" fill-rule="nonzero" group-id="1" node-id="79" stroke-linecap="butt" stroke-opacity="0.5" stroke-width="1" target-height="36.078987" target-width="76.130005" target-x="72.72" target-y="122.19102"></path><path d="M 149.54 135.16 L 165.93 158.27 L 225.67 124.00 C 222.88 122.00 217.77 120.69 209.26 125.47 C 184.51 139.40 174.02 148.47 165.72 142.24 C 160.67 138.45 155.68 132.13 149.54 135.16 Z" fill="#e38921" fill-opacity="0.5" fill-rule="nonzero" group-id="1" node-id="81" stroke-linecap="butt" stroke-opacity="0.5" stroke-width="1" target-height="36.078987" target-width="76.130005" target-x="149.54" target-y="122.19102"></path></g><g node-id="179"><path d="M 174.34 129.38 C 176.73 127.66 179.21 126.09 181.73 124.59 C 184.25 123.09 186.79 121.65 189.36 120.24 C 191.93 118.83 194.53 117.52 197.18 116.24 C 199.83 114.96 202.49 113.75 205.25 112.70 C 205.76 112.55 206.31 112.78 206.56 113.25 C 206.80 113.73 206.67 114.31 206.25 114.64 C 203.85 116.36 201.37 117.92 198.85 119.42 C 196.33 120.92 193.78 122.35 191.21 123.75 C 188.64 125.15 186.03 126.46 183.38 127.75 C 180.73 129.04 178.06 130.23 175.31 131.28 C 174.75 131.49 174.13 131.21 173.92 130.65 C 173.74 130.18 173.92 129.65 174.34 129.38 Z" fill="#ffffff" fill-opacity="0.75" fill-rule="nonzero" group-id="2" node-id="86" stroke-linecap="butt" stroke-opacity="0.75" stroke-width="1" target-height="18.648148" target-width="32.74907" target-x="173.90436" target-y="112.7"></path><path d="M 123.05 131.26 C 120.29 130.26 117.62 129.00 114.97 127.73 C 112.32 126.46 109.73 125.13 107.14 123.73 C 104.55 122.33 102.00 121.00 99.50 119.44 C 97.00 117.88 94.50 116.38 92.10 114.66 C 91.64 114.34 91.49 113.72 91.76 113.22 C 92.03 112.72 92.63 112.51 93.15 112.72 C 95.90 113.72 98.57 114.99 101.21 116.26 C 103.85 117.53 106.45 118.87 109.04 120.26 C 111.63 121.65 114.16 123.09 116.67 124.61 C 119.18 126.13 121.67 127.68 124.06 129.40 C 124.48 129.72 124.60 130.30 124.35 130.76 C 124.11 131.23 123.56 131.45 123.06 131.28 Z" fill="#ffffff" fill-opacity="0.75" fill-rule="nonzero" group-id="2" node-id="88" stroke-linecap="butt" stroke-opacity="0.75" stroke-width="1" target-height="18.574951" target-width="32.801117" target-x="91.65474" target-y="112.70505"></path></g><path d="M 167.30 176.00 C 168.18 173.35 171.73 171.68 174.39 172.00 C 177.05 172.32 178.08 175.00 175.29 177.38 C 171.47 180.55 166.17 179.44 167.30 176.00 Z" fill="#d811ad" fill-rule="nonzero" node-id="91" stroke="none" target-height="7.196472" target-width="9.722992" target-x="167.1648" target-y="171.99908"></path><path d="M 197.71 162.60 C 195.16 161.45 191.54 162.94 189.95 165.10 C 188.36 167.26 189.70 169.88 193.31 169.40 C 198.26 168.74 201.00 164.09 197.71 162.60 Z" fill="#d811ad" fill-rule="nonzero" node-id="93" stroke="none" target-height="7.162842" target-width="9.81929" target-x="189.3122" target-y="162.23715"></path><path d="M 184.27 162.89 C 185.20 162.64 186.17 163.12 186.55 164.01 C 188.70 168.55 182.55 173.12 178.39 171.20 C 176.91 170.51 174.66 168.27 176.22 166.61 C 178.56 164.74 181.33 163.46 184.27 162.89 Z" fill="#ffffff" fill-rule="nonzero" node-id="95" stroke="none" target-height="8.791107" target-width="11.254181" target-x="175.73154" target-y="162.83707"></path><path d="M 226.82 123.23 C 213.89 104.06 211.41 100.23 210.75 99.35 C 210.60 99.17 210.42 99.03 210.22 98.92 C 209.30 98.32 202.67 94.57 151.09 64.76 C 149.83 64.03 148.27 64.03 147.01 64.76 C 134.26 72.17 91.84 96.76 87.71 99.33 C 87.41 99.53 87.90 99.02 71.57 123.23 C 71.41 123.46 71.36 123.74 71.42 124.01 C 71.48 124.28 71.66 124.51 71.90 124.65 L 87.30 133.49 L 87.21 169.37 C 87.21 169.73 87.40 170.06 87.71 170.24 L 148.31 205.24 C 148.46 205.33 148.63 205.38 148.81 205.38 C 148.99 205.38 149.16 205.33 149.31 205.24 L 210.00 170.00 C 210.31 169.82 210.50 169.50 210.50 169.14 L 210.59 133.83 L 226.52 124.68 C 226.77 124.53 226.95 124.29 227.00 124.00 C 227.05 123.73 226.98 123.45 226.82 123.23 Z M 150.09 66.49 L 207.65 99.72 L 149.00 133.81 L 90.39 100.00 C 150.20 65.69 148.10 65.34 150.09 66.49 Z M 73.83 123.49 L 88.70 101.32 L 89.39 101.71 L 89.39 101.71 L 147.54 135.27 L 132.18 157.00 L 89.31 132.34 L 87.31 131.19 Z M 89.31 134.69 C 134.89 160.80 131.95 159.31 132.47 159.31 C 132.79 159.31 133.09 159.15 133.28 158.89 L 148.00 138.13 L 147.84 202.63 L 89.22 168.80 Z M 208.47 168.57 L 149.81 202.65 L 149.94 152.06 L 149.94 137.54 C 165.73 159.54 164.94 159.31 165.94 159.31 C 166.11 159.31 166.28 159.26 166.43 159.18 L 208.56 135.00 Z M 210.56 131.57 L 208.56 132.72 L 166.21 157.00 L 150.73 135.16 L 209.46 101.00 L 224.57 123.47 Z" fill="#0a1640" fill-rule="nonzero" node-id="97" stroke="none" target-height="141.16818" target-width="155.58577" target-x="71.41423" target-y="64.21183"></path><path d="M 169.52 171.45 C 172.23 172.06 174.35 168.89 172.32 166.89 C 171.27 165.82 169.59 165.69 168.39 166.59 C 167.56 167.26 167.19 168.34 167.43 169.37 C 167.67 170.41 168.48 171.22 169.52 171.45 Z" fill="#0a1640" fill-rule="nonzero" node-id="99" stroke="none" target-height="5.454529" target-width="5.736969" target-x="167.36157" target-y="166.00406"></path><path d="M 192.86 161.17 C 193.38 160.25 193.33 159.11 192.73 158.23 C 192.14 157.36 191.09 156.90 190.04 157.05 C 188.57 157.34 187.53 158.66 187.59 160.16 C 187.70 163.00 191.47 163.58 192.86 161.17 Z" fill="#0a1640" fill-rule="nonzero" node-id="101" stroke="none" target-height="5.585266" target-width="5.6279144" target-x="187.59" target-y="157.04736"></path><path d="M 177.07 87.51 C 174.70 89.84 171.91 91.71 168.84 93.00 C 164.46 95.00 159.26 95.91 157.69 99.88 L 149.80 95.74 L 141.90 91.60 C 142.71 90.28 143.07 88.72 142.90 87.18 C 142.83 86.12 142.67 85.06 142.42 84.03 C 142.03 82.24 141.50 80.37 141.17 78.51 C 140.49 75.26 140.43 71.91 140.99 68.64 C 143.73 54.41 158.61 43.85 172.99 51.39 C 174.81 52.31 176.50 53.49 178.00 54.88 C 178.40 55.26 178.78 55.65 179.14 56.07 C 187.07 64.90 185.48 78.94 177.07 87.51 Z" fill="#ffffff" fill-rule="nonzero" node-id="103" stroke="none" target-height="50.976715" target-width="43.667328" target-x="140.63785" target-y="48.903282"></path><path d="M 167.94 71.92 C 166.79 70.54 165.34 69.44 163.71 68.68 C 162.26 67.87 160.66 67.38 159.00 67.25 C 155.91 63.47 149.68 63.70 147.71 68.66 C 145.71 73.96 148.71 77.58 147.89 81.36 C 146.93 84.70 145.59 87.91 143.89 90.94 L 145.44 91.75 C 147.25 88.60 148.67 85.24 149.68 81.75 C 150.59 77.16 147.77 73.85 149.53 69.43 C 150.76 66.53 153.81 66.08 156.12 67.56 C 151.12 69.04 149.62 74.72 152.01 76.85 C 155.27 79.85 161.63 76.04 160.26 69.93 C 161.96 70.50 163.56 71.33 165.00 72.39 C 161.51 73.83 159.26 78.31 161.67 81.55 C 165.11 86.17 171.32 80.55 169.39 74.55 C 172.83 76.04 173.82 80.29 168.78 83.55 C 164.20 86.40 162.00 84.00 155.43 97.00 L 157.13 97.89 C 158.65 94.78 160.53 91.85 162.73 89.18 C 165.37 86.35 170.04 86.74 173.27 82.07 C 176.21 77.64 172.91 72.29 167.94 71.92 Z M 156.22 75.27 C 155.40 75.77 154.36 75.72 153.59 75.16 C 152.45 74.16 153.82 69.99 157.92 69.67 C 158.72 71.71 158.02 74.02 156.22 75.27 Z M 164.53 80.86 C 163.53 80.70 162.46 79.10 163.19 77.27 C 163.74 75.76 165.01 74.64 166.57 74.27 C 168.58 77.74 165.94 81.24 164.53 80.86 Z" fill="#6b7fff" fill-rule="nonzero" node-id="105" stroke="none" target-height="33.241646" target-width="30.475052" target-x="143.89" target-y="64.64835"></path><path d="M 146.05 115.90 L 145.38 115.55 L 136.38 110.83 L 135.71 110.47 C 135.18 110.20 134.79 109.73 134.61 109.17 C 134.44 108.60 134.50 107.99 134.78 107.47 L 136.54 104.10 L 136.54 104.10 L 150.79 111.57 L 150.79 111.57 L 149.00 115.00 C 148.42 116.05 147.11 116.45 146.05 115.90 Z" fill="#6b7fff" fill-rule="nonzero" node-id="107" stroke="none" target-height="12.039307" target-width="16.266281" target-x="134.52371" target-y="104.1"></path><path d="M 157.99 103.86 L 155.52 108.56 L 153.05 107.26 L 138.83 99.80 L 136.35 98.51 L 138.81 93.81 L 157.99 103.86 Z" fill="#6b7fff" fill-rule="nonzero" node-id="109" stroke="none" target-height="14.75" target-width="21.64" target-x="136.35" target-y="93.81"></path><path d="M 177.07 87.51 C 174.70 89.84 171.91 91.71 168.84 93.00 C 164.46 95.00 159.26 95.91 157.69 99.88 L 149.80 95.74 L 141.90 91.60 C 142.71 90.28 143.07 88.72 142.90 87.18 C 151.98 90.16 161.97 88.00 169.00 81.53 C 178.66 72.79 177.91 61.53 179.08 56.09 C 187.07 64.90 185.48 78.94 177.07 87.51 Z" fill="#0a1640" fill-opacity="0.18" fill-rule="nonzero" group-id="3" node-id="113" stroke-linecap="butt" stroke-opacity="0.18" stroke-width="1" target-height="43.789997" target-width="42.39476" target-x="141.9" target-y="56.09"></path><path d="M 148.70 61.38 C 151.07 57.12 155.21 54.14 160.00 53.24 C 162.85 52.75 165.78 53.09 168.44 54.24 C 168.77 54.36 168.96 54.72 168.87 55.06 C 168.79 55.40 168.46 55.63 168.11 55.59 C 162.91 54.99 158.85 55.08 153.68 58.72 C 149.77 61.54 149.68 62.96 148.83 62.17 C 148.62 61.96 148.57 61.64 148.70 61.38 Z" fill="#0a1640" fill-opacity="0.18" fill-rule="nonzero" group-id="3" node-id="115" stroke-linecap="butt" stroke-opacity="0.18" stroke-width="1" target-height="9.357979" target-width="20.23642" target-x="148.63641" target-y="53.027256"></path><path d="M 144.89 115.29 L 136.89 111.08 C 138.17 109.12 140.73 108.45 142.81 109.54 C 144.88 110.63 145.78 113.12 144.89 115.29 Z" fill="#332fba" fill-rule="nonzero" node-id="118" stroke="none" target-height="6.2440414" target-width="8.342621" target-x="136.89" target-y="109.04596"></path><path d="M 159.00 102.00 L 158.00 103.87 L 138.82 93.87 L 139.82 91.99 C 140.54 90.63 142.22 90.11 143.58 90.82 L 143.92 91.00 L 145.47 91.81 L 155.47 97.05 L 157.17 97.94 L 157.84 98.29 C 159.17 99.01 159.68 100.65 159.00 102.00 Z" fill="#332fba" fill-rule="nonzero" node-id="120" stroke="none" target-height="13.35939" target-width="20.472855" target-x="138.82" target-y="90.51061"></path><path d="M 150.80 111.61 L 150.80 111.61 L 136.55 104.14 L 136.55 104.14 C 135.20 103.42 134.68 101.75 135.39 100.39 L 136.39 98.52 L 138.87 99.81 L 153.09 107.27 L 155.56 108.57 L 154.56 110.44 C 154.22 111.10 153.63 111.59 152.92 111.81 C 152.22 112.03 151.45 111.96 150.80 111.61 Z" fill="#332fba" fill-rule="nonzero" node-id="122" stroke="none" target-height="13.402458" target-width="20.480545" target-x="135.07945" target-y="98.52"></path><path d="M 178.68 54.16 C 165.07 41.16 143.68 49.60 140.06 68.43 C 138.25 77.77 142.98 84.86 141.74 89.49 C 138.55 89.92 138.53 93.06 134.48 99.92 C 133.70 101.42 134.02 103.25 135.25 104.41 L 133.89 107.00 C 133.49 107.75 133.41 108.63 133.66 109.45 C 133.91 110.26 134.48 110.94 135.23 111.34 C 145.84 116.76 145.68 117.13 147.07 117.13 C 149.91 117.13 150.39 114.08 151.29 112.81 C 155.29 113.69 155.63 109.87 159.86 102.43 C 160.50 101.21 160.42 99.74 159.66 98.59 C 162.87 95.16 171.30 94.81 177.78 88.19 C 187.10 78.70 188.19 63.14 178.68 54.16 Z M 148.16 114.51 C 147.84 115.10 147.10 115.32 146.51 115.01 C 132.29 107.56 135.27 110.01 136.95 105.48 L 149.45 112.03 Z M 158.08 101.51 L 158.08 101.51 C 153.19 110.51 153.73 111.44 151.24 110.69 L 137.00 103.25 C 136.14 102.79 135.81 101.72 136.25 100.85 C 140.34 93.76 140.61 90.34 143.09 91.64 C 158.03 99.50 157.41 99.10 157.69 99.36 C 158.30 99.91 158.46 100.80 158.08 101.52 Z M 176.36 86.80 L 176.36 86.80 C 170.06 93.23 161.93 93.19 158.15 97.27 L 143.75 89.73 C 145.00 84.32 140.28 77.79 142.00 68.80 C 145.33 51.55 164.79 43.65 177.28 55.61 C 186.00 63.86 184.84 78.16 176.36 86.81 Z" fill="#0a1640" fill-rule="nonzero" node-id="124" stroke="none" target-height="69.23584" target-width="51.759674" target-x="133.53159" target-y="47.894157"></path><path d="M 63.00 54.90 C 63.61 55.30 64.19 55.73 64.74 56.20 C 65.93 57.20 67.11 58.03 68.24 59.05 L 68.78 59.54 C 69.57 60.21 70.19 61.05 70.59 62.00 C 70.79 62.88 70.67 63.80 70.26 64.61 C 69.94 65.40 69.48 66.12 68.90 66.73 C 68.07 67.61 67.15 68.38 65.90 68.08 C 65.07 67.91 64.30 67.54 63.65 67.00 C 61.74 65.71 59.89 64.33 58.12 62.86 C 57.01 62.08 56.21 60.94 55.86 59.63 C 55.83 59.42 55.83 59.20 55.86 58.99 C 56.32 56.76 57.92 54.94 60.07 54.20 C 60.61 54.10 61.16 54.14 61.68 54.31 C 62.14 54.45 62.59 54.64 63.00 54.90 Z M 63.29 58.61 C 63.29 58.61 62.66 58.20 62.29 57.91 C 61.66 57.45 60.83 57.35 60.11 57.67 C 59.59 58.01 59.29 58.59 59.30 59.21 C 59.27 59.85 59.45 60.47 59.81 61.00 C 60.61 61.90 61.53 62.70 62.54 63.37 C 63.41 63.95 64.31 64.48 65.25 64.94 C 65.90 65.00 66.54 64.75 66.98 64.27 C 67.43 63.79 67.62 63.13 67.51 62.49 C 67.27 61.61 67.14 61.78 66.20 60.91 L 65.32 60.18 L 64.48 59.53 Z" fill="#0a1640" fill-rule="nonzero" node-id="126" stroke="none" target-height="13.964378" target-width="14.7929535" target-x="55.86" target-y="54.15316"></path><path d="M 77.00 52.64 C 78.28 54.10 78.28 56.29 77.00 57.75 C 75.40 59.66 72.47 61.02 70.50 59.16 C 67.79 56.39 65.13 53.46 62.38 50.74 L 62.38 50.74 L 62.38 50.74 C 63.06 49.95 63.83 49.25 64.67 48.65 L 64.67 48.65 C 67.08 51.33 69.65 53.86 72.37 56.23 C 72.94 56.54 73.64 56.42 74.08 55.95 C 74.51 55.48 74.58 54.77 74.23 54.23 C 71.87 51.61 69.23 48.99 66.92 46.49 C 67.46 45.87 68.47 44.49 69.26 44.29 C 72.06 46.86 74.65 49.66 77.00 52.64 Z" fill="#0a1640" fill-rule="nonzero" node-id="128" stroke="none" target-height="15.755554" target-width="15.576733" target-x="62.38" target-y="44.29"></path><path d="M 80.27 39.36 C 79.50 39.83 78.78 40.38 78.12 41.00 L 78.12 41.00 L 78.12 41.00 C 78.12 41.00 78.12 41.00 78.12 41.06 C 78.30 41.45 79.28 42.73 85.12 50.32 L 85.12 50.32 L 85.12 50.32 C 84.36 51.11 83.06 51.83 82.32 52.60 C 82.11 52.43 80.38 49.66 75.19 43.30 L 75.19 43.30 C 74.43 43.43 73.26 44.55 72.91 44.67 C 72.10 43.86 71.39 42.97 70.79 42.00 L 70.74 42.00 C 73.16 40.07 75.68 38.27 78.30 36.61 C 79.04 37.46 79.70 38.38 80.27 39.36 Z" fill="#0a1640" fill-rule="nonzero" node-id="130" stroke="none" target-height="15.989998" target-width="14.380005" target-x="70.74" target-y="36.61"></path><path d="M 90.80 34.91 C 89.96 35.64 88.98 36.20 87.92 36.53 C 87.43 34.96 84.65 35.86 85.26 37.41 C 85.32 37.60 85.42 37.78 85.55 37.93 C 86.04 38.32 86.72 38.37 87.26 38.04 C 88.69 37.44 90.31 37.48 91.71 38.16 C 93.25 38.89 94.27 40.40 94.36 42.10 C 94.58 43.91 93.59 45.66 91.92 46.40 C 89.65 47.62 86.41 47.57 85.18 45.05 L 85.18 44.99 L 85.18 44.94 C 86.09 44.32 87.03 43.76 88.00 43.25 C 89.00 44.82 91.83 43.25 90.51 41.67 C 89.66 40.53 88.05 41.22 86.86 41.62 C 86.32 41.80 85.74 41.83 85.19 41.71 C 83.65 41.32 82.41 40.18 81.89 38.68 C 81.37 37.18 81.65 35.52 82.62 34.26 C 83.75 33.00 85.32 32.21 87.00 32.05 C 88.79 31.97 90.38 33.16 90.80 34.90 Z" fill="#0a1640" fill-rule="nonzero" node-id="132" stroke="none" target-height="15.077499" target-width="12.7102585" target-x="81.64974" target-y="32.05"></path><path d="M 94.79 27.75 L 94.79 27.83 C 96.79 32.45 98.58 37.39 100.79 41.83 C 100.54 42.47 97.69 43.19 97.19 43.60 C 95.48 38.60 92.64 33.91 91.19 29.18 L 91.19 29.18 C 91.32 29.10 91.85 28.94 92.03 28.86 C 92.53 28.67 93.03 28.51 94.29 27.96 Z" fill="#0a1640" fill-rule="nonzero" node-id="134" stroke="none" target-height="15.849998" target-width="9.599998" target-x="91.19" target-y="27.75"></path><path d="M 107.47 28.87 C 107.73 29.26 107.93 29.68 108.07 30.13 C 108.50 31.44 108.83 32.77 109.07 34.13 C 109.07 34.13 109.07 34.13 109.07 34.13 C 108.96 35.95 108.53 37.74 107.80 39.41 C 105.98 40.06 104.07 40.66 102.31 41.21 L 102.31 41.21 C 100.31 36.97 99.08 31.76 97.45 26.92 C 97.45 26.92 97.45 26.84 97.45 26.82 C 98.92 25.92 100.85 25.59 102.45 25.02 C 103.49 24.99 104.50 25.35 105.29 26.02 C 106.18 26.83 106.92 27.80 107.47 28.87 Z M 105.38 31.62 C 104.94 30.81 104.38 29.84 103.31 29.81 C 102.76 29.90 102.23 30.07 101.74 30.32 L 101.74 30.32 L 101.74 30.32 L 101.74 30.41 C 102.32 31.88 102.79 33.97 103.49 35.83 C 103.89 36.00 104.49 35.73 104.95 35.50 C 105.11 35.50 105.17 35.37 105.29 35.26 C 105.50 35.00 105.65 34.70 105.73 34.38 C 106.01 33.45 105.88 32.45 105.38 31.62 Z" fill="#0a1640" fill-rule="nonzero" node-id="136" stroke="none" target-height="16.189999" target-width="11.620003" target-x="97.45" target-y="25.02"></path><path d="M 120.17 34.05 C 120.42 34.99 120.53 35.96 120.48 36.93 C 117.48 37.40 114.41 38.15 111.57 38.39 C 110.72 33.39 109.64 28.56 109.08 23.55 C 112.41 22.80 118.01 21.76 118.08 21.89 C 118.33 22.90 118.50 23.93 118.60 24.97 L 118.60 24.97 C 116.83 25.69 114.84 25.69 112.96 26.19 L 112.90 26.19 L 112.90 26.19 C 112.96 27.05 113.12 27.89 113.35 28.72 L 113.35 28.72 C 114.23 28.64 115.13 28.46 116.03 28.33 L 116.03 28.33 C 116.28 29.32 116.47 30.32 116.59 31.33 C 115.74 31.72 114.26 31.72 114.00 32.02 C 114.05 32.94 114.20 33.85 114.46 34.73 L 114.46 34.73 C 116.37 34.40 118.20 34.27 120.16 33.87 Z" fill="#0a1640" fill-rule="nonzero" node-id="138" stroke="none" target-height="16.5" target-width="11.400002" target-x="109.08" target-y="21.89"></path><path d="M 78.11 75.00 C 77.48 75.65 76.93 76.36 76.45 77.12 L 76.45 77.12 L 76.45 77.12 C 76.45 77.12 76.45 77.12 76.45 77.18 C 76.73 77.51 78.01 78.48 85.69 84.25 L 85.69 84.25 L 85.69 84.25 C 85.16 85.25 84.10 86.25 83.59 87.19 C 83.34 87.08 80.94 84.87 74.25 80.09 L 74.25 80.09 C 73.55 80.41 72.72 81.80 72.42 82.01 C 71.42 81.45 70.50 80.77 69.65 80.00 C 69.65 80.00 69.65 80.00 69.60 80.00 C 71.42 77.50 73.38 75.09 75.47 72.80 C 76.42 73.45 77.30 74.19 78.11 75.00 Z" fill="#0a1640" fill-rule="nonzero" node-id="140" stroke="none" target-height="14.389999" target-width="16.04" target-x="69.65" target-y="72.8"></path><path d="M 94.63 75.00 C 94.03 75.83 92.99 76.69 92.52 77.25 L 92.52 77.25 C 90.95 76.05 89.52 74.32 88.04 73.14 L 88.04 73.14 C 87.30 73.62 86.67 74.26 86.20 75.00 C 87.48 76.57 89.14 77.79 90.20 79.31 C 89.98 80.11 88.34 80.92 88.20 81.49 C 86.32 79.84 80.31 74.00 77.24 70.75 L 77.24 70.75 L 77.24 70.75 L 77.24 70.75 C 77.99 70.26 78.51 69.26 79.24 68.85 C 80.84 70.11 82.06 71.57 83.62 72.66 L 83.62 72.66 C 84.26 72.19 84.83 71.62 85.30 70.98 L 85.30 70.98 C 84.06 69.50 82.73 68.11 81.30 66.81 C 81.84 65.95 82.52 65.18 83.30 64.53 Z" fill="#0a1640" fill-rule="nonzero" node-id="142" stroke="none" target-height="16.96" target-width="17.39" target-x="77.24" target-y="64.53"></path><path d="M 101.16 66.62 C 101.82 67.34 102.35 68.16 102.73 69.05 C 100.32 70.81 97.88 72.88 95.46 74.38 C 92.46 70.28 89.29 66.49 86.53 62.27 C 89.16 60.10 93.69 56.64 93.76 56.75 C 94.44 57.54 95.06 58.38 95.62 59.26 L 95.62 59.26 C 94.36 60.70 92.62 61.60 91.14 62.90 L 91.14 62.90 L 91.14 62.90 C 91.57 63.65 92.07 64.35 92.65 65.00 L 92.65 65.00 C 93.39 64.53 94.12 64.00 94.86 63.44 L 94.86 63.44 C 95.53 64.21 96.15 65.02 96.72 65.87 C 96.14 66.60 94.83 67.27 94.72 67.65 C 95.18 68.45 95.73 69.19 96.36 69.86 L 96.36 69.86 C 97.91 68.71 99.49 67.76 101.05 66.52 Z" fill="#0a1640" fill-rule="nonzero" node-id="144" stroke="none" target-height="17.629997" target-width="16.200005" target-x="86.53" target-y="56.75"></path><path d="M 115.00 59.19 C 116.11 63.26 111.34 64.46 108.41 65.73 C 108.27 65.82 108.11 65.87 107.95 65.89 C 105.65 61.36 103.74 56.79 101.50 52.20 L 101.50 52.20 C 104.29 49.84 109.06 47.74 111.14 52.20 C 111.61 53.33 111.77 54.56 111.61 55.77 C 111.61 56.00 111.69 56.05 111.90 56.14 C 113.27 56.76 114.56 57.33 115.00 59.19 Z M 108.54 53.34 C 108.17 53.05 107.68 52.94 107.22 53.06 C 106.63 53.16 106.08 53.44 105.65 53.86 C 105.97 54.71 106.39 55.53 106.88 56.30 C 107.72 56.02 108.88 55.61 108.88 54.62 C 109.00 54.17 108.88 53.69 108.58 53.34 Z M 111.00 58.79 C 110.66 58.54 110.24 58.44 109.83 58.51 C 109.27 58.66 108.73 58.85 108.20 59.08 C 108.36 59.95 108.82 61.41 109.56 61.84 L 109.56 61.84 C 110.30 61.50 111.34 61.18 111.56 60.29 C 111.62 59.73 111.42 59.17 111.00 58.79 Z" fill="#0a1640" fill-rule="nonzero" node-id="146" stroke="none" target-height="16.251427" target-width="13.650734" target-x="101.5" target-y="49.638573"></path><path d="M 122.62 47.89 C 122.89 48.56 123.12 49.25 123.31 49.95 C 123.69 51.47 124.19 52.81 124.54 54.29 L 124.69 55.00 C 124.96 56.01 124.99 57.07 124.77 58.09 C 124.41 58.91 123.79 59.58 123.00 60.00 C 122.29 60.48 121.50 60.82 120.67 61.00 C 119.49 61.25 118.30 61.35 117.45 60.39 C 116.86 59.78 116.44 59.03 116.22 58.21 C 115.39 56.06 114.67 53.87 114.07 51.65 C 113.61 50.38 113.61 48.98 114.07 47.71 C 114.17 47.52 114.29 47.34 114.44 47.19 C 116.09 45.62 118.44 45.05 120.62 45.68 C 121.12 45.91 121.55 46.25 121.88 46.68 C 122.19 47.04 122.43 47.45 122.62 47.89 Z M 120.74 51.09 C 120.74 51.09 120.45 50.40 120.28 49.92 C 120.03 49.18 119.41 48.63 118.64 48.48 C 118.02 48.45 117.43 48.76 117.09 49.28 C 116.73 49.79 116.54 50.40 116.55 51.03 C 116.69 52.23 116.98 53.41 117.43 54.54 C 117.80 55.51 118.24 56.46 118.75 57.37 C 119.25 57.80 119.92 57.97 120.56 57.83 C 121.20 57.69 121.74 57.26 122.01 56.66 C 122.31 55.81 122.11 55.87 121.83 54.66 C 121.68 54.09 121.55 53.66 121.54 53.56 L 121.22 52.56 Z" fill="#0a1640" fill-rule="nonzero" node-id="148" stroke="none" target-height="15.719246" target-width="11.154015" target-x="113.75943" target-y="45.429504"></path><path d="M 131.76 50.40 C 132.60 52.77 134.07 55.10 135.08 57.40 C 134.89 57.41 134.70 57.44 134.51 57.48 C 134.05 57.56 133.63 57.68 133.13 57.77 C 132.80 57.83 132.47 57.86 132.13 57.85 L 132.13 57.85 C 131.25 56.58 130.73 54.50 129.79 53.26 L 129.79 53.26 C 129.34 55.03 129.48 56.91 129.04 58.50 C 128.72 58.58 128.38 58.67 128.04 58.73 C 127.39 58.89 126.71 58.93 126.04 58.87 C 126.25 56.63 126.91 53.67 127.04 51.16 C 125.99 48.72 124.72 46.38 123.25 44.16 C 124.17 43.93 124.88 43.78 125.40 43.69 C 126.18 43.55 126.40 43.46 126.55 43.59 C 127.11 44.75 128.22 47.10 128.83 48.13 C 129.14 46.87 129.26 44.28 129.44 42.92 L 129.44 42.92 C 130.19 42.72 131.09 42.54 132.74 42.25 L 132.74 42.25 C 132.74 42.25 132.74 42.25 132.74 42.25 C 132.20 44.94 131.87 47.66 131.76 50.40 Z" fill="#0a1640" fill-rule="nonzero" node-id="150" stroke="none" target-height="16.633148" target-width="11.830002" target-x="123.25" target-y="42.25"></path><path d="M 239.16 120.73 C 239.91 121.08 240.44 121.31 240.95 121.59 C 242.56 122.40 243.42 124.19 243.07 125.95 C 242.78 127.45 242.16 128.87 241.24 130.09 C 240.86 130.61 240.51 131.16 240.19 131.73 C 239.79 132.43 239.74 133.28 240.06 134.02 C 240.38 134.77 241.03 135.31 241.82 135.50 C 242.66 135.73 243.53 135.83 244.40 135.80 C 245.53 135.80 245.63 136.06 245.75 136.57 C 245.87 137.08 245.46 137.73 244.61 137.90 C 242.77 138.43 240.79 138.09 239.24 136.97 C 238.13 136.11 237.41 134.84 237.24 133.45 C 237.07 132.06 237.47 130.66 238.34 129.56 C 239.09 128.58 239.70 127.50 240.17 126.36 C 240.70 124.98 240.47 124.36 239.17 123.73 C 238.53 123.40 237.84 123.16 237.17 122.85 C 236.03 122.36 235.07 121.51 234.45 120.43 C 233.54 118.87 233.71 116.91 234.86 115.52 C 235.66 114.49 236.33 113.37 236.86 112.17 C 237.45 110.76 237.25 110.23 235.78 109.69 C 234.82 109.36 233.84 109.09 232.85 108.87 C 232.27 108.75 231.77 108.38 231.47 107.87 C 231.30 107.63 231.25 107.33 231.34 107.05 C 231.42 106.77 231.63 106.54 231.91 106.44 C 232.38 106.23 232.89 106.16 233.40 106.24 C 234.84 106.43 236.24 106.83 237.57 107.42 C 238.55 107.84 239.32 108.64 239.69 109.63 C 240.07 110.63 240.03 111.74 239.57 112.70 C 239.11 113.92 238.49 115.07 237.75 116.14 C 237.62 116.32 237.49 116.49 237.34 116.65 C 236.05 118.46 236.29 119.37 238.34 120.36 C 238.71 120.56 239.05 120.68 239.16 120.73 Z" fill="#6b7fff" fill-rule="nonzero" node-id="152" stroke="none" target-height="31.90567" target-width="14.443726" target-x="231.30627" target-y="106.23212"></path><path d="M 62.00 142.00 C 62.76 142.34 63.30 142.55 63.81 142.81 C 65.44 143.57 66.36 145.33 66.06 147.11 C 65.81 148.62 65.22 150.05 64.34 151.30 C 63.97 151.84 63.64 152.39 63.34 152.97 C 62.95 153.68 62.92 154.53 63.26 155.27 C 63.60 156.00 64.27 156.53 65.07 156.69 C 65.92 156.90 66.79 156.97 67.66 156.92 C 68.78 156.92 68.90 157.14 69.03 157.65 C 69.16 158.16 68.80 158.83 68.00 159.00 C 66.11 159.43 64.21 159.46 62.61 158.22 C 61.48 157.39 60.72 156.15 60.51 154.76 C 60.30 153.38 60.66 151.96 61.50 150.84 C 62.21 149.84 62.80 148.75 63.23 147.60 C 63.73 146.19 63.48 145.60 62.14 144.99 C 61.48 144.68 60.79 144.46 60.14 144.16 C 58.98 143.70 58.01 142.88 57.36 141.82 C 56.41 140.29 56.51 138.33 57.63 136.91 C 58.40 135.86 59.03 134.71 59.52 133.50 C 60.08 132.07 59.86 131.50 58.38 131.05 C 57.41 130.75 56.43 130.50 55.43 130.32 C 54.85 130.22 54.34 129.88 54.02 129.39 C 53.84 129.16 53.79 128.85 53.86 128.57 C 53.94 128.29 54.15 128.06 54.42 127.95 C 54.88 127.73 55.39 127.64 55.90 127.71 C 57.34 127.86 58.76 128.22 60.10 128.77 C 61.10 129.15 61.90 129.93 62.31 130.91 C 62.73 131.90 62.72 133.01 62.30 133.99 C 61.87 135.22 61.29 136.40 60.58 137.49 C 60.47 137.67 60.31 137.82 60.19 138.00 C 58.94 139.85 59.19 140.75 61.30 141.68 C 61.58 141.85 61.92 142.00 62.00 142.00 Z" fill="#6b7fff" fill-rule="nonzero" node-id="154" stroke="none" target-height="31.526237" target-width="15.1918335" target-x="53.846107" target-y="127.71"></path><path d="M 198.79 195.68 C 198.79 194.85 198.79 194.27 198.79 193.68 C 198.82 191.88 200.05 190.33 201.79 189.88 C 203.27 189.49 204.81 189.43 206.31 189.73 C 206.95 189.85 207.59 189.93 208.24 189.97 C 209.05 190.03 209.84 189.71 210.37 189.10 C 210.91 188.48 211.12 187.65 210.94 186.86 C 210.78 186.00 210.49 185.18 210.08 184.41 C 209.60 183.41 209.78 183.19 210.19 182.86 C 210.60 182.53 211.36 182.62 211.88 183.31 C 213.04 184.86 213.88 186.57 213.37 188.55 C 213.08 189.92 212.25 191.11 211.07 191.86 C 209.89 192.61 208.45 192.86 207.09 192.55 C 205.88 192.31 204.65 192.23 203.42 192.30 C 201.94 192.42 201.53 192.87 201.50 194.36 C 201.50 195.09 201.55 195.81 201.56 196.54 C 201.61 197.78 201.26 199.00 200.56 200.03 C 199.55 201.53 197.71 202.23 195.96 201.79 C 194.68 201.52 193.38 201.41 192.07 201.46 C 190.55 201.53 190.16 201.95 190.31 203.46 C 190.43 204.47 190.61 205.47 190.85 206.46 C 190.99 207.03 190.89 207.63 190.58 208.13 C 190.44 208.39 190.18 208.56 189.89 208.61 C 189.60 208.65 189.31 208.56 189.10 208.35 C 188.71 208.02 188.42 207.59 188.27 207.10 C 187.82 205.72 187.57 204.28 187.53 202.83 C 187.47 201.76 187.85 200.72 188.58 199.94 C 189.31 199.16 190.32 198.71 191.39 198.69 C 192.69 198.58 193.99 198.63 195.28 198.83 C 195.50 198.83 195.70 198.94 195.92 198.98 C 198.11 199.36 198.82 198.75 198.82 196.46 C 198.83 196.16 198.80 195.80 198.79 195.68 Z" fill="#6b7fff" fill-rule="nonzero" node-id="156" stroke="none" target-height="25.91101" target-width="25.984695" target-x="187.53" target-y="182.69583"></path><path d="M 114.15 206.57 C 113.34 206.71 112.77 206.84 112.15 206.90 C 110.37 207.16 108.63 206.19 107.91 204.54 C 107.28 203.15 106.99 201.63 107.04 200.10 C 107.05 199.45 107.03 198.80 106.96 198.16 C 106.89 197.35 106.44 196.62 105.75 196.20 C 105.06 195.77 104.21 195.70 103.46 196.00 C 102.64 196.30 101.87 196.72 101.18 197.24 C 100.25 197.88 100.02 197.73 99.63 197.38 C 99.24 197.03 99.20 196.26 99.80 195.64 C 101.14 194.24 102.70 193.17 104.73 193.32 C 106.13 193.38 107.45 194.00 108.39 195.05 C 109.33 196.09 109.81 197.47 109.73 198.87 C 109.69 200.10 109.81 201.34 110.07 202.54 C 110.44 203.98 110.94 204.31 112.42 204.10 C 113.14 204.01 113.84 203.81 114.56 203.69 C 115.78 203.43 117.05 203.59 118.17 204.12 C 119.80 204.88 120.79 206.57 120.65 208.37 C 120.58 209.67 120.68 210.98 120.94 212.26 C 121.26 213.75 121.73 214.07 123.25 213.67 C 124.22 213.39 125.18 213.06 126.11 212.67 C 126.65 212.44 127.25 212.44 127.79 212.67 C 128.07 212.76 128.29 212.98 128.38 213.26 C 128.48 213.54 128.43 213.85 128.26 214.09 C 127.99 214.52 127.61 214.87 127.15 215.09 C 125.86 215.76 124.48 216.23 123.06 216.51 C 122.02 216.74 120.93 216.53 120.04 215.94 C 119.15 215.35 118.54 214.42 118.35 213.37 C 118.03 212.10 117.87 210.80 117.86 209.50 C 117.86 209.28 117.91 209.07 117.91 208.85 C 117.91 206.62 117.21 206.02 114.91 206.39 C 114.62 206.46 114.26 206.55 114.15 206.57 Z" fill="#6b7fff" fill-rule="nonzero" node-id="158" stroke="none" target-height="23.213608" target-width="29.076378" target-x="99.34374" target-y="193.32"></path><path d="M 175.20 106.20 C 175.20 105.37 175.20 104.79 175.20 104.20 C 175.27 102.40 176.54 100.87 178.29 100.46 C 179.77 100.10 181.32 100.07 182.81 100.40 C 183.45 100.53 184.09 100.62 184.74 100.67 C 185.54 100.75 186.33 100.45 186.87 99.86 C 187.41 99.27 187.65 98.46 187.50 97.67 C 187.35 96.81 187.08 95.98 186.69 95.20 C 186.23 94.20 186.42 93.97 186.83 93.65 C 187.24 93.33 188.01 93.43 188.51 94.13 C 189.76 95.58 190.28 97.52 189.90 99.40 C 189.58 100.76 188.73 101.94 187.53 102.68 C 186.34 103.41 184.90 103.63 183.54 103.30 C 182.34 103.04 181.10 102.92 179.87 102.97 C 178.39 103.06 177.97 103.50 177.87 104.97 C 177.87 105.70 177.87 106.42 177.87 107.15 C 177.90 108.39 177.53 109.61 176.80 110.62 C 175.76 112.09 173.91 112.76 172.17 112.29 C 170.90 111.99 169.60 111.85 168.29 111.88 C 166.77 111.88 166.37 112.33 166.49 113.88 C 166.59 114.89 166.75 115.89 166.96 116.88 C 167.10 117.45 166.99 118.05 166.66 118.53 C 166.52 118.79 166.26 118.96 165.97 119.00 C 165.68 119.04 165.39 118.94 165.18 118.73 C 164.80 118.39 164.52 117.95 164.37 117.46 C 163.95 116.07 163.73 114.63 163.72 113.18 C 163.68 112.11 164.08 111.07 164.82 110.31 C 165.57 109.54 166.59 109.11 167.66 109.12 C 168.96 109.03 170.27 109.11 171.55 109.34 C 171.77 109.34 171.97 109.46 172.19 109.50 C 174.37 109.92 175.09 109.32 175.14 107.04 C 175.22 106.67 175.20 106.31 175.20 106.20 Z" fill="#6b7fff" fill-rule="nonzero" node-id="160" stroke="none" target-height="25.50895" target-width="26.298676" target-x="163.72" target-y="93.493324"></path><path d="M 196.47 45.80 C 197.30 45.80 197.88 45.80 198.47 45.80 C 200.26 45.84 201.80 47.07 202.25 48.80 C 202.63 50.28 202.68 51.82 202.37 53.32 C 202.25 53.96 202.16 54.60 202.12 55.25 C 202.04 56.06 202.35 56.86 202.96 57.41 C 203.57 57.95 204.40 58.17 205.20 58.00 C 206.06 57.84 206.88 57.56 207.66 57.16 C 208.66 56.68 208.88 56.87 209.21 57.27 C 209.54 57.67 209.44 58.45 208.75 58.96 C 207.19 60.12 205.47 60.96 203.50 60.42 C 202.13 60.12 200.93 59.29 200.18 58.11 C 199.43 56.92 199.18 55.49 199.50 54.12 C 199.75 52.91 199.85 51.68 199.78 50.45 C 199.67 48.97 199.22 48.55 197.78 48.51 C 197.06 48.51 196.33 48.51 195.61 48.51 C 194.37 48.56 193.14 48.21 192.12 47.51 C 190.63 46.49 189.94 44.65 190.39 42.91 C 190.67 41.63 190.79 40.33 190.75 39.02 C 190.68 37.50 190.27 37.11 188.75 37.25 C 187.74 37.36 186.74 37.53 185.75 37.76 C 185.18 37.90 184.58 37.80 184.09 37.48 C 183.82 37.35 183.63 37.10 183.57 36.81 C 183.52 36.52 183.60 36.22 183.80 36.00 C 184.13 35.61 184.57 35.33 185.06 35.18 C 186.44 34.73 187.88 34.49 189.33 34.47 C 190.40 34.41 191.44 34.79 192.22 35.53 C 193.00 36.26 193.44 37.28 193.45 38.35 C 193.55 39.65 193.49 40.96 193.28 42.25 C 193.28 42.46 193.17 42.67 193.13 42.88 C 192.73 45.07 193.34 45.78 195.63 45.80 C 196.00 45.84 196.35 45.81 196.47 45.80 Z" fill="#6b7fff" fill-rule="nonzero" node-id="162" stroke="none" target-height="26.112228" target-width="25.799088" target-x="183.57329" target-y="34.47"></path><path d="M 122.82 99.25 C 122.82 101.71 120.82 103.71 118.36 103.71 C 115.90 103.71 113.90 101.71 113.90 99.25 C 113.90 96.79 115.90 94.79 118.36 94.79 C 120.82 94.79 122.82 96.79 122.82 99.25 Z" fill="#d811ad" fill-rule="nonzero" node-id="164" stroke="none" target-height="8.919998" target-width="8.919998" target-x="113.9" target-y="94.79"></path><path d="M 154.36 32.48 C 154.37 34.94 156.37 36.93 158.83 36.92 C 161.29 36.91 163.28 34.91 163.28 32.45 C 163.28 29.99 161.28 28.00 158.82 28.00 C 157.63 28.00 156.50 28.47 155.66 29.31 C 154.82 30.15 154.35 31.29 154.36 32.48 Z" fill="#d811ad" fill-rule="nonzero" node-id="166" stroke="none" target-height="8.919979" target-width="8.919952" target-x="154.36" target-y="28"></path><path d="M 69.66 182.66 C 69.66 185.12 71.66 187.12 74.12 187.12 C 76.58 187.12 78.58 185.12 78.58 182.66 C 78.58 180.20 76.58 178.20 74.12 178.20 C 71.66 178.20 69.66 180.20 69.66 182.66 Z" fill="#d811ad" fill-rule="nonzero" node-id="168" stroke="none" target-height="8.919998" target-width="8.919998" target-x="69.66" target-y="178.2"></path><path d="M 227.87 161.73 C 227.87 164.19 229.87 166.19 232.33 166.19 C 234.79 166.19 236.79 164.19 236.79 161.73 C 236.79 159.27 234.79 157.27 232.33 157.27 C 229.87 157.27 227.87 159.27 227.87 161.73 Z" fill="#d811ad" fill-rule="nonzero" node-id="170" stroke="none" target-height="8.919998" target-width="8.919998" target-x="227.87" target-y="157.27"></path><path d="M 227.12 84.93 L 223.92 83.68 C 223.71 83.60 223.48 83.63 223.30 83.75 L 220.45 85.68 C 220.24 85.80 219.99 85.80 219.78 85.67 C 219.57 85.55 219.45 85.33 219.45 85.09 L 219.66 81.66 C 219.67 81.44 219.57 81.23 219.40 81.09 L 216.65 79.00 C 216.45 78.85 216.35 78.59 216.40 78.34 C 216.45 78.09 216.64 77.89 216.89 77.83 L 220.21 76.96 C 220.42 76.91 220.60 76.75 220.67 76.54 L 221.84 73.31 C 221.93 73.07 222.14 72.90 222.39 72.87 C 222.64 72.84 222.89 72.96 223.03 73.17 L 224.89 76.07 C 225.01 76.25 225.21 76.37 225.43 76.38 L 228.86 76.49 C 229.11 76.50 229.34 76.65 229.45 76.88 C 229.55 77.11 229.52 77.38 229.36 77.58 L 227.17 80.24 C 227.04 80.41 226.99 80.64 227.05 80.85 L 228.00 84.15 C 228.06 84.39 227.98 84.64 227.80 84.81 C 227.61 84.97 227.35 85.02 227.12 84.93 Z" fill="#ff8cdb" fill-rule="nonzero" node-id="172" stroke="none" target-height="12.894417" target-width="13.104355" target-x="216.39876" target-y="72.87249"></path><path d="M 63.83 104.12 L 60.63 102.87 C 60.42 102.79 60.19 102.81 60.01 102.94 L 57.16 104.86 C 56.95 104.99 56.69 104.99 56.48 104.86 C 56.28 104.74 56.15 104.51 56.16 104.27 L 56.36 100.84 C 56.38 100.62 56.28 100.41 56.11 100.28 L 53.39 98.16 C 53.20 98.01 53.11 97.76 53.15 97.52 C 53.19 97.28 53.37 97.08 53.60 97.00 L 56.92 96.13 C 57.13 96.08 57.30 95.92 57.38 95.72 L 58.55 92.48 C 58.64 92.24 58.85 92.08 59.10 92.05 C 59.36 92.02 59.60 92.14 59.74 92.35 L 61.59 95.24 C 61.71 95.43 61.91 95.54 62.13 95.55 L 65.57 95.67 C 65.82 95.68 66.05 95.83 66.15 96.06 C 66.25 96.29 66.22 96.56 66.06 96.76 L 63.88 99.40 C 63.74 99.57 63.70 99.80 63.76 100.01 L 64.71 103.31 C 64.78 103.55 64.71 103.81 64.52 103.99 C 64.33 104.16 64.07 104.21 63.83 104.12 Z" fill="#ff8cdb" fill-rule="nonzero" node-id="174" stroke="none" target-height="12.906319" target-width="13.053898" target-x="53.149174" target-y="92.04826"></path><path d="M 155.37 227.07 L 152.89 225.31 C 152.73 225.20 152.53 225.17 152.35 225.24 L 149.49 226.24 C 149.28 226.32 149.05 226.27 148.88 226.12 C 148.72 225.97 148.66 225.73 148.73 225.52 L 149.63 222.62 C 149.69 222.44 149.66 222.23 149.54 222.08 L 147.66 219.69 C 147.50 219.51 147.46 219.26 147.56 219.04 C 147.66 218.82 147.88 218.68 148.12 218.69 L 151.12 218.69 C 151.31 218.69 151.49 218.59 151.60 218.43 L 153.29 215.91 C 153.42 215.75 153.62 215.67 153.83 215.70 C 154.03 215.73 154.21 215.86 154.29 216.05 L 155.29 218.93 C 155.35 219.11 155.50 219.25 155.69 219.30 L 158.61 220.14 C 158.81 220.21 158.95 220.38 158.99 220.59 C 159.03 220.79 158.96 221.00 158.80 221.14 L 156.42 223.00 C 156.27 223.12 156.18 223.30 156.18 223.49 L 156.30 226.49 C 156.34 226.73 156.24 226.97 156.03 227.10 C 155.83 227.22 155.56 227.21 155.37 227.07 Z" fill="#ff8cdb" fill-rule="nonzero" node-id="176" stroke="none" target-height="11.486069" target-width="11.477646" target-x="147.51378" target-y="215.69804"></path></svg>